<svg width="574" height="253" viewBox="0 0 574 253" fill="none" xmlns="http://www.w3.org/2000/svg">
<path d="M73.9062 203V1.90625H159.688C197.938 1.90625 217.062 17.5156 217.062 48.7344C217.062 71.6094 204.594 87.9688 179.656 97.8125C206.281 102.781 219.594 118.016 219.594 143.516C219.594 183.172 198.641 203 156.734 203H73.9062ZM155.188 181.906C179.188 181.906 191.188 169.719 191.188 145.344C191.188 121.625 175.109 109.766 142.953 109.766H131.703V92.75C170.141 87.5938 189.359 73.7188 189.359 51.125C189.359 32.375 178.672 23 157.297 23H99.9219V181.906H155.188ZM258.125 195.969V172.062C279.219 179.562 302 183.312 326.469 183.312C361.062 183.312 378.359 170.656 378.359 145.344C378.359 123.781 365.609 113 340.109 113H314.234C272.141 113 251.094 94.7188 251.094 58.1562C251.094 19.7188 278.047 0.5 331.953 0.5C355.391 0.5 377.188 3.3125 397.344 8.9375V32.8438C377.188 25.3438 355.391 21.5938 331.953 21.5938C295.391 21.5938 277.109 33.7813 277.109 58.1562C277.109 79.7188 289.484 90.5 314.234 90.5H340.109C382.953 90.5 404.375 108.781 404.375 145.344C404.375 184.719 378.406 204.406 326.469 204.406C302 204.406 279.219 201.594 258.125 195.969ZM468.359 1.90625V181.906H573.547V203H442.344V1.90625H468.359Z" fill="black"/>
<path d="M52.9707 245V219.406H61.3379C64.1152 219.406 66.2012 219.98 67.5957 221.129C69.002 222.277 69.7051 223.977 69.7051 226.227C69.7051 227.422 69.3652 228.482 68.6855 229.408C68.0059 230.322 67.0801 231.031 65.9082 231.535C67.291 231.922 68.3809 232.66 69.1777 233.75C69.9863 234.828 70.3906 236.117 70.3906 237.617C70.3906 239.914 69.6465 241.719 68.1582 243.031C66.6699 244.344 64.5664 245 61.8477 245H52.9707ZM56.3457 233.029V242.24H61.918C63.4883 242.24 64.7246 241.836 65.627 241.027C66.541 240.207 66.998 239.082 66.998 237.652C66.998 234.57 65.3223 233.029 61.9707 233.029H56.3457ZM56.3457 230.322H61.4434C62.9199 230.322 64.0977 229.953 64.9766 229.215C65.8672 228.477 66.3125 227.475 66.3125 226.209C66.3125 224.803 65.9023 223.783 65.082 223.15C64.2617 222.506 63.0137 222.184 61.3379 222.184H56.3457V230.322ZM86.6328 243.119C85.3672 244.607 83.5098 245.352 81.0605 245.352C79.0332 245.352 77.4863 244.766 76.4199 243.594C75.3652 242.41 74.832 240.664 74.8203 238.355V225.98H78.0723V238.268C78.0723 241.15 79.2441 242.592 81.5879 242.592C84.0723 242.592 85.7246 241.666 86.5449 239.814V225.98H89.7969V245H86.7031L86.6328 243.119ZM105.828 239.955C105.828 239.076 105.494 238.396 104.826 237.916C104.17 237.424 103.016 237.002 101.363 236.65C99.7227 236.299 98.416 235.877 97.4434 235.385C96.4824 234.893 95.7676 234.307 95.2988 233.627C94.8418 232.947 94.6133 232.139 94.6133 231.201C94.6133 229.643 95.2695 228.324 96.582 227.246C97.9062 226.168 99.5938 225.629 101.645 225.629C103.801 225.629 105.547 226.186 106.883 227.299C108.23 228.412 108.904 229.836 108.904 231.57H105.635C105.635 230.68 105.254 229.912 104.492 229.268C103.742 228.623 102.793 228.301 101.645 228.301C100.461 228.301 99.5352 228.559 98.8672 229.074C98.1992 229.59 97.8652 230.264 97.8652 231.096C97.8652 231.881 98.1758 232.473 98.7969 232.871C99.418 233.27 100.537 233.65 102.154 234.014C103.783 234.377 105.102 234.811 106.109 235.314C107.117 235.818 107.861 236.428 108.342 237.143C108.834 237.846 109.08 238.707 109.08 239.727C109.08 241.426 108.4 242.791 107.041 243.822C105.682 244.842 103.918 245.352 101.75 245.352C100.227 245.352 98.8789 245.082 97.707 244.543C96.5352 244.004 95.6152 243.254 94.9473 242.293C94.291 241.32 93.9629 240.271 93.9629 239.146H97.2148C97.2734 240.236 97.707 241.104 98.5156 241.748C99.3359 242.381 100.414 242.697 101.75 242.697C102.98 242.697 103.965 242.451 104.703 241.959C105.453 241.455 105.828 240.787 105.828 239.955ZM116.85 245H113.598V225.98H116.85V245ZM113.334 220.936C113.334 220.408 113.492 219.963 113.809 219.6C114.137 219.236 114.617 219.055 115.25 219.055C115.883 219.055 116.363 219.236 116.691 219.6C117.02 219.963 117.184 220.408 117.184 220.936C117.184 221.463 117.02 221.902 116.691 222.254C116.363 222.605 115.883 222.781 115.25 222.781C114.617 222.781 114.137 222.605 113.809 222.254C113.492 221.902 113.334 221.463 113.334 220.936ZM125.146 225.98L125.252 228.371C126.705 226.543 128.604 225.629 130.947 225.629C134.967 225.629 136.994 227.896 137.029 232.432V245H133.777V232.414C133.766 231.043 133.449 230.029 132.828 229.373C132.219 228.717 131.264 228.389 129.963 228.389C128.908 228.389 127.982 228.67 127.186 229.232C126.389 229.795 125.768 230.533 125.322 231.447V245H122.07V225.98H125.146ZM149.826 245.352C147.248 245.352 145.15 244.508 143.533 242.82C141.916 241.121 141.107 238.854 141.107 236.018V235.42C141.107 233.533 141.465 231.852 142.18 230.375C142.906 228.887 143.914 227.727 145.203 226.895C146.504 226.051 147.91 225.629 149.422 225.629C151.895 225.629 153.816 226.443 155.188 228.072C156.559 229.701 157.244 232.033 157.244 235.068V236.422H144.359C144.406 238.297 144.951 239.814 145.994 240.975C147.049 242.123 148.385 242.697 150.002 242.697C151.15 242.697 152.123 242.463 152.92 241.994C153.717 241.525 154.414 240.904 155.012 240.131L156.998 241.678C155.404 244.127 153.014 245.352 149.826 245.352ZM149.422 228.301C148.109 228.301 147.008 228.781 146.117 229.742C145.227 230.691 144.676 232.027 144.465 233.75H153.992V233.504C153.898 231.852 153.453 230.574 152.656 229.672C151.859 228.758 150.781 228.301 149.422 228.301ZM172.098 239.955C172.098 239.076 171.764 238.396 171.096 237.916C170.439 237.424 169.285 237.002 167.633 236.65C165.992 236.299 164.686 235.877 163.713 235.385C162.752 234.893 162.037 234.307 161.568 233.627C161.111 232.947 160.883 232.139 160.883 231.201C160.883 229.643 161.539 228.324 162.852 227.246C164.176 226.168 165.863 225.629 167.914 225.629C170.07 225.629 171.816 226.186 173.152 227.299C174.5 228.412 175.174 229.836 175.174 231.57H171.904C171.904 230.68 171.523 229.912 170.762 229.268C170.012 228.623 169.062 228.301 167.914 228.301C166.73 228.301 165.805 228.559 165.137 229.074C164.469 229.59 164.135 230.264 164.135 231.096C164.135 231.881 164.445 232.473 165.066 232.871C165.688 233.27 166.807 233.65 168.424 234.014C170.053 234.377 171.371 234.811 172.379 235.314C173.387 235.818 174.131 236.428 174.611 237.143C175.104 237.846 175.35 238.707 175.35 239.727C175.35 241.426 174.67 242.791 173.311 243.822C171.951 244.842 170.188 245.352 168.02 245.352C166.496 245.352 165.148 245.082 163.977 244.543C162.805 244.004 161.885 243.254 161.217 242.293C160.561 241.32 160.232 240.271 160.232 239.146H163.484C163.543 240.236 163.977 241.104 164.785 241.748C165.605 242.381 166.684 242.697 168.02 242.697C169.25 242.697 170.234 242.451 170.973 241.959C171.723 241.455 172.098 240.787 172.098 239.955ZM190.66 239.955C190.66 239.076 190.326 238.396 189.658 237.916C189.002 237.424 187.848 237.002 186.195 236.65C184.555 236.299 183.248 235.877 182.275 235.385C181.314 234.893 180.6 234.307 180.131 233.627C179.674 232.947 179.445 232.139 179.445 231.201C179.445 229.643 180.102 228.324 181.414 227.246C182.738 226.168 184.426 225.629 186.477 225.629C188.633 225.629 190.379 226.186 191.715 227.299C193.062 228.412 193.736 229.836 193.736 231.57H190.467C190.467 230.68 190.086 229.912 189.324 229.268C188.574 228.623 187.625 228.301 186.477 228.301C185.293 228.301 184.367 228.559 183.699 229.074C183.031 229.59 182.697 230.264 182.697 231.096C182.697 231.881 183.008 232.473 183.629 232.871C184.25 233.27 185.369 233.65 186.986 234.014C188.615 234.377 189.934 234.811 190.941 235.314C191.949 235.818 192.693 236.428 193.174 237.143C193.666 237.846 193.912 238.707 193.912 239.727C193.912 241.426 193.232 242.791 191.873 243.822C190.514 244.842 188.75 245.352 186.582 245.352C185.059 245.352 183.711 245.082 182.539 244.543C181.367 244.004 180.447 243.254 179.779 242.293C179.123 241.32 178.795 240.271 178.795 239.146H182.047C182.105 240.236 182.539 241.104 183.348 241.748C184.168 242.381 185.246 242.697 186.582 242.697C187.812 242.697 188.797 242.451 189.535 241.959C190.285 241.455 190.66 240.787 190.66 239.955ZM215.129 233.592C212.234 232.76 210.125 231.74 208.801 230.533C207.488 229.314 206.832 227.814 206.832 226.033C206.832 224.018 207.635 222.354 209.24 221.041C210.857 219.717 212.955 219.055 215.533 219.055C217.291 219.055 218.855 219.395 220.227 220.074C221.609 220.754 222.676 221.691 223.426 222.887C224.188 224.082 224.568 225.389 224.568 226.807H221.176C221.176 225.26 220.684 224.047 219.699 223.168C218.715 222.277 217.326 221.832 215.533 221.832C213.869 221.832 212.568 222.201 211.631 222.939C210.705 223.666 210.242 224.68 210.242 225.98C210.242 227.023 210.682 227.908 211.561 228.635C212.451 229.35 213.957 230.006 216.078 230.604C218.211 231.201 219.875 231.863 221.07 232.59C222.277 233.305 223.168 234.143 223.742 235.104C224.328 236.064 224.621 237.195 224.621 238.496C224.621 240.57 223.812 242.234 222.195 243.488C220.578 244.73 218.416 245.352 215.709 245.352C213.951 245.352 212.311 245.018 210.787 244.35C209.264 243.67 208.086 242.744 207.254 241.572C206.434 240.4 206.023 239.07 206.023 237.582H209.416C209.416 239.129 209.984 240.354 211.121 241.256C212.27 242.146 213.799 242.592 215.709 242.592C217.49 242.592 218.855 242.229 219.805 241.502C220.754 240.775 221.229 239.785 221.229 238.531C221.229 237.277 220.789 236.311 219.91 235.631C219.031 234.939 217.438 234.26 215.129 233.592ZM227.592 235.314C227.592 233.451 227.955 231.775 228.682 230.287C229.42 228.799 230.439 227.65 231.74 226.842C233.053 226.033 234.547 225.629 236.223 225.629C238.812 225.629 240.904 226.525 242.498 228.318C244.104 230.111 244.906 232.496 244.906 235.473V235.701C244.906 237.553 244.549 239.217 243.834 240.693C243.131 242.158 242.117 243.301 240.793 244.121C239.48 244.941 237.969 245.352 236.258 245.352C233.68 245.352 231.588 244.455 229.982 242.662C228.389 240.869 227.592 238.496 227.592 235.543V235.314ZM230.861 235.701C230.861 237.811 231.348 239.504 232.32 240.781C233.305 242.059 234.617 242.697 236.258 242.697C237.91 242.697 239.223 242.053 240.195 240.764C241.168 239.463 241.654 237.646 241.654 235.314C241.654 233.229 241.156 231.541 240.16 230.252C239.176 228.951 237.863 228.301 236.223 228.301C234.617 228.301 233.322 228.939 232.338 230.217C231.354 231.494 230.861 233.322 230.861 235.701ZM252.518 245H249.266V218H252.518V245ZM269.48 243.119C268.215 244.607 266.357 245.352 263.908 245.352C261.881 245.352 260.334 244.766 259.268 243.594C258.213 242.41 257.68 240.664 257.668 238.355V225.98H260.92V238.268C260.92 241.15 262.092 242.592 264.436 242.592C266.92 242.592 268.572 241.666 269.393 239.814V225.98H272.645V245H269.551L269.48 243.119ZM282.014 221.375V225.98H285.564V228.494H282.014V240.289C282.014 241.051 282.172 241.625 282.488 242.012C282.805 242.387 283.344 242.574 284.105 242.574C284.48 242.574 284.996 242.504 285.652 242.363V245C284.797 245.234 283.965 245.352 283.156 245.352C281.703 245.352 280.607 244.912 279.869 244.033C279.131 243.154 278.762 241.906 278.762 240.289V228.494H275.299V225.98H278.762V221.375H282.014ZM292.912 245H289.66V225.98H292.912V245ZM289.396 220.936C289.396 220.408 289.555 219.963 289.871 219.6C290.199 219.236 290.68 219.055 291.312 219.055C291.945 219.055 292.426 219.236 292.754 219.6C293.082 219.963 293.246 220.408 293.246 220.936C293.246 221.463 293.082 221.902 292.754 222.254C292.426 222.605 291.945 222.781 291.312 222.781C290.68 222.781 290.199 222.605 289.871 222.254C289.555 221.902 289.396 221.463 289.396 220.936ZM297.271 235.314C297.271 233.451 297.635 231.775 298.361 230.287C299.1 228.799 300.119 227.65 301.42 226.842C302.732 226.033 304.227 225.629 305.902 225.629C308.492 225.629 310.584 226.525 312.178 228.318C313.783 230.111 314.586 232.496 314.586 235.473V235.701C314.586 237.553 314.229 239.217 313.514 240.693C312.811 242.158 311.797 243.301 310.473 244.121C309.16 244.941 307.648 245.352 305.938 245.352C303.359 245.352 301.268 244.455 299.662 242.662C298.068 240.869 297.271 238.496 297.271 235.543V235.314ZM300.541 235.701C300.541 237.811 301.027 239.504 302 240.781C302.984 242.059 304.297 242.697 305.938 242.697C307.59 242.697 308.902 242.053 309.875 240.764C310.848 239.463 311.334 237.646 311.334 235.314C311.334 233.229 310.836 231.541 309.84 230.252C308.855 228.951 307.543 228.301 305.902 228.301C304.297 228.301 303.002 228.939 302.018 230.217C301.033 231.494 300.541 233.322 300.541 235.701ZM321.74 225.98L321.846 228.371C323.299 226.543 325.197 225.629 327.541 225.629C331.561 225.629 333.588 227.896 333.623 232.432V245H330.371V232.414C330.359 231.043 330.043 230.029 329.422 229.373C328.812 228.717 327.857 228.389 326.557 228.389C325.502 228.389 324.576 228.67 323.779 229.232C322.982 229.795 322.361 230.533 321.916 231.447V245H318.664V225.98H321.74ZM349.602 239.955C349.602 239.076 349.268 238.396 348.6 237.916C347.943 237.424 346.789 237.002 345.137 236.65C343.496 236.299 342.189 235.877 341.217 235.385C340.256 234.893 339.541 234.307 339.072 233.627C338.615 232.947 338.387 232.139 338.387 231.201C338.387 229.643 339.043 228.324 340.355 227.246C341.68 226.168 343.367 225.629 345.418 225.629C347.574 225.629 349.32 226.186 350.656 227.299C352.004 228.412 352.678 229.836 352.678 231.57H349.408C349.408 230.68 349.027 229.912 348.266 229.268C347.516 228.623 346.566 228.301 345.418 228.301C344.234 228.301 343.309 228.559 342.641 229.074C341.973 229.59 341.639 230.264 341.639 231.096C341.639 231.881 341.949 232.473 342.57 232.871C343.191 233.27 344.311 233.65 345.928 234.014C347.557 234.377 348.875 234.811 349.883 235.314C350.891 235.818 351.635 236.428 352.115 237.143C352.607 237.846 352.854 238.707 352.854 239.727C352.854 241.426 352.174 242.791 350.814 243.822C349.455 244.842 347.691 245.352 345.523 245.352C344 245.352 342.652 245.082 341.48 244.543C340.309 244.004 339.389 243.254 338.721 242.293C338.064 241.32 337.736 240.271 337.736 239.146H340.988C341.047 240.236 341.48 241.104 342.289 241.748C343.109 242.381 344.188 242.697 345.523 242.697C346.754 242.697 347.738 242.451 348.477 241.959C349.227 241.455 349.602 240.787 349.602 239.955ZM369.922 242.24H382.051V245H366.529V219.406H369.922V242.24ZM397.133 245C396.945 244.625 396.793 243.957 396.676 242.996C395.164 244.566 393.359 245.352 391.262 245.352C389.387 245.352 387.846 244.824 386.639 243.77C385.443 242.703 384.846 241.355 384.846 239.727C384.846 237.746 385.596 236.211 387.096 235.121C388.607 234.02 390.729 233.469 393.459 233.469H396.623V231.975C396.623 230.838 396.283 229.936 395.604 229.268C394.924 228.588 393.922 228.248 392.598 228.248C391.438 228.248 390.465 228.541 389.68 229.127C388.895 229.713 388.502 230.422 388.502 231.254H385.232C385.232 230.305 385.566 229.391 386.234 228.512C386.914 227.621 387.828 226.918 388.977 226.402C390.137 225.887 391.408 225.629 392.791 225.629C394.982 225.629 396.699 226.18 397.941 227.281C399.184 228.371 399.828 229.877 399.875 231.799V240.553C399.875 242.299 400.098 243.688 400.543 244.719V245H397.133ZM391.736 242.521C392.756 242.521 393.723 242.258 394.637 241.73C395.551 241.203 396.213 240.518 396.623 239.674V235.771H394.074C390.09 235.771 388.098 236.938 388.098 239.27C388.098 240.289 388.438 241.086 389.117 241.66C389.797 242.234 390.67 242.521 391.736 242.521ZM421.074 235.701C421.074 238.607 420.406 240.945 419.07 242.715C417.734 244.473 415.941 245.352 413.691 245.352C411.289 245.352 409.432 244.502 408.119 242.803L407.961 245H404.973V218H408.225V228.072C409.537 226.443 411.348 225.629 413.656 225.629C415.965 225.629 417.775 226.502 419.088 228.248C420.412 229.994 421.074 232.385 421.074 235.42V235.701ZM417.822 235.332C417.822 233.117 417.395 231.406 416.539 230.199C415.684 228.992 414.453 228.389 412.848 228.389C410.703 228.389 409.162 229.385 408.225 231.377V239.604C409.221 241.596 410.773 242.592 412.883 242.592C414.441 242.592 415.654 241.988 416.521 240.781C417.389 239.574 417.822 237.758 417.822 235.332ZM424.326 235.314C424.326 233.451 424.689 231.775 425.416 230.287C426.154 228.799 427.174 227.65 428.475 226.842C429.787 226.033 431.281 225.629 432.957 225.629C435.547 225.629 437.639 226.525 439.232 228.318C440.838 230.111 441.641 232.496 441.641 235.473V235.701C441.641 237.553 441.283 239.217 440.568 240.693C439.865 242.158 438.852 243.301 437.527 244.121C436.215 244.941 434.703 245.352 432.992 245.352C430.414 245.352 428.322 244.455 426.717 242.662C425.123 240.869 424.326 238.496 424.326 235.543V235.314ZM427.596 235.701C427.596 237.811 428.082 239.504 429.055 240.781C430.039 242.059 431.352 242.697 432.992 242.697C434.645 242.697 435.957 242.053 436.93 240.764C437.902 239.463 438.389 237.646 438.389 235.314C438.389 233.229 437.891 231.541 436.895 230.252C435.91 228.951 434.598 228.301 432.957 228.301C431.352 228.301 430.057 228.939 429.072 230.217C428.088 231.494 427.596 233.322 427.596 235.701ZM454.912 228.898C454.42 228.816 453.887 228.775 453.312 228.775C451.18 228.775 449.732 229.684 448.971 231.5V245H445.719V225.98H448.883L448.936 228.178C450.002 226.479 451.514 225.629 453.471 225.629C454.104 225.629 454.584 225.711 454.912 225.875V228.898ZM468.957 245C468.77 244.625 468.617 243.957 468.5 242.996C466.988 244.566 465.184 245.352 463.086 245.352C461.211 245.352 459.67 244.824 458.463 243.77C457.268 242.703 456.67 241.355 456.67 239.727C456.67 237.746 457.42 236.211 458.92 235.121C460.432 234.02 462.553 233.469 465.283 233.469H468.447V231.975C468.447 230.838 468.107 229.936 467.428 229.268C466.748 228.588 465.746 228.248 464.422 228.248C463.262 228.248 462.289 228.541 461.504 229.127C460.719 229.713 460.326 230.422 460.326 231.254H457.057C457.057 230.305 457.391 229.391 458.059 228.512C458.738 227.621 459.652 226.918 460.801 226.402C461.961 225.887 463.232 225.629 464.615 225.629C466.807 225.629 468.523 226.18 469.766 227.281C471.008 228.371 471.652 229.877 471.699 231.799V240.553C471.699 242.299 471.922 243.688 472.367 244.719V245H468.957ZM463.561 242.521C464.58 242.521 465.547 242.258 466.461 241.73C467.375 241.203 468.037 240.518 468.447 239.674V235.771H465.898C461.914 235.771 459.922 236.938 459.922 239.27C459.922 240.289 460.262 241.086 460.941 241.66C461.621 242.234 462.494 242.521 463.561 242.521ZM481.209 221.375V225.98H484.76V228.494H481.209V240.289C481.209 241.051 481.367 241.625 481.684 242.012C482 242.387 482.539 242.574 483.301 242.574C483.676 242.574 484.191 242.504 484.848 242.363V245C483.992 245.234 483.16 245.352 482.352 245.352C480.898 245.352 479.803 244.912 479.064 244.033C478.326 243.154 477.957 241.906 477.957 240.289V228.494H474.494V225.98H477.957V221.375H481.209ZM487.361 235.314C487.361 233.451 487.725 231.775 488.451 230.287C489.189 228.799 490.209 227.65 491.51 226.842C492.822 226.033 494.316 225.629 495.992 225.629C498.582 225.629 500.674 226.525 502.268 228.318C503.873 230.111 504.676 232.496 504.676 235.473V235.701C504.676 237.553 504.318 239.217 503.604 240.693C502.9 242.158 501.887 243.301 500.562 244.121C499.25 244.941 497.738 245.352 496.027 245.352C493.449 245.352 491.357 244.455 489.752 242.662C488.158 240.869 487.361 238.496 487.361 235.543V235.314ZM490.631 235.701C490.631 237.811 491.117 239.504 492.09 240.781C493.074 242.059 494.387 242.697 496.027 242.697C497.68 242.697 498.992 242.053 499.965 240.764C500.938 239.463 501.424 237.646 501.424 235.314C501.424 233.229 500.926 231.541 499.93 230.252C498.945 228.951 497.633 228.301 495.992 228.301C494.387 228.301 493.092 228.939 492.107 230.217C491.123 231.494 490.631 233.322 490.631 235.701ZM517.947 228.898C517.455 228.816 516.922 228.775 516.348 228.775C514.215 228.775 512.768 229.684 512.006 231.5V245H508.754V225.98H511.918L511.971 228.178C513.037 226.479 514.549 225.629 516.506 225.629C517.139 225.629 517.619 225.711 517.947 225.875V228.898ZM527.492 240.236L531.922 225.98H535.402L527.756 247.936C526.572 251.1 524.691 252.682 522.113 252.682L521.498 252.629L520.285 252.4V249.764L521.164 249.834C522.266 249.834 523.121 249.611 523.73 249.166C524.352 248.721 524.861 247.906 525.26 246.723L525.98 244.789L519.195 225.98H522.746L527.492 240.236Z" fill="black"/>
<mask id="mask0" mask-type="alpha" maskUnits="userSpaceOnUse" x="-111" y="-58" width="183" height="283">
<rect x="-111" y="-58" width="183" height="283" fill="#C4C4C4"/>
</mask>
<g mask="url(#mask0)">
<path d="M131 170.5C131 174.899 129.306 179.255 126.014 183.32C122.722 187.384 117.898 191.077 111.815 194.188C105.733 197.299 98.5126 199.766 90.5658 201.45C82.6189 203.133 74.1016 204 65.5 204C56.8984 204 48.3811 203.133 40.4342 201.45C32.4874 199.766 25.2667 197.299 19.1845 194.188C13.1023 191.077 8.27757 187.384 4.98589 183.32C1.69421 179.255 -7.51974e-07 174.899 0 170.5L65.5 170.5H131Z" fill="black"/>
<path d="M131 171C131 151.109 124.099 132.032 111.815 117.967C99.5319 103.902 82.8717 96 65.5 96C48.1283 96 31.4681 103.902 19.1845 117.967C6.90088 132.032 2.62305e-06 151.109 0 171L65.5 171H131Z" fill="black"/>
<rect x="49" y="20" width="32" height="95" fill="black"/>
<rect x="43" y="1" width="44" height="29" fill="black"/>
</g>
</svg>
