<svg id="revision" enable-background="new 0 0 300 300" height="512" viewBox="0 0 300 300" width="512" xmlns="http://www.w3.org/2000/svg"><g><circle cx="154.209" cy="254.209" r="8.969"/><path d="m244.918 24h-65.836c-10.523 0-19.082 8.561-19.082 19.082v8.918h-49.062c-10.445 0-18.941 8.273-18.941 18.443v185.926c0 10.824 9.047 19.631 20.168 19.631h87.668c11.121 0 20.168-8.807 20.168-19.631v-148.369h24.918c10.522 0 19.081-8.561 19.081-19.082v-45.836c0-10.521-8.559-19.082-19.082-19.082zm-133.98 36h49.062v28h-60.004v-17.557c0-5.757 4.908-10.443 10.942-10.443zm88.894 208h-87.668c-6.709 0-12.168-5.217-12.168-11.631v-12.369h112.004v12.369c0 6.414-5.457 11.631-12.168 11.631zm12.168-32h-112.004v-140h61.4c2.821 7.019 9.669 12 17.686 12h3.871l-4.035 17.17c-.398 1.691.344 3.447 1.836 4.344.637.383 1.348.57 2.059.57.945 0 1.891-.336 2.637-.992l24.054-21.092h2.496zm44-147.082c0 6.111-4.973 11.082-11.082 11.082h-36.918c-.969 0-1.906.354-2.637.992l-15.801 13.855 2.332-9.934c.277-1.189 0-2.441-.758-3.398-.761-.956-1.913-1.515-3.136-1.515h-8.918c-6.109 0-11.082-4.971-11.082-11.082v-45.836c0-6.111 4.973-11.082 11.082-11.082h65.836c6.109 0 11.082 4.971 11.082 11.082z"/><circle cx="184" cy="56" r="6.278"/><path d="m244 52h-44c-2.211 0-4 1.791-4 4s1.789 4 4 4h44c2.211 0 4-1.791 4-4s-1.789-4-4-4z"/><circle cx="184" cy="80" r="6.278"/><path d="m244 76h-44c-2.211 0-4 1.791-4 4s1.789 4 4 4h44c2.211 0 4-1.791 4-4s-1.789-4-4-4z"/><path d="m156 128c-26.467 0-48 21.533-48 48s21.533 48 48 48c26.469 0 48-21.533 48-48s-21.531-48-48-48zm0 88c-22.055 0-40-17.943-40-40s17.945-40 40-40 40 17.943 40 40-17.945 40-40 40z"/><path d="m156 149.645c-5.199 0-10.152 1.513-14.37 4.266l.55-3.506c.34-2.184-1.152-4.229-3.336-4.57-2.188-.344-4.227 1.152-4.57 3.332l-2.227 14.215c-.336 2.152 1.113 4.18 3.258 4.559l15.113 2.672c.234.041.469.061.699.061 1.906 0 3.594-1.363 3.934-3.303.387-2.176-1.066-4.252-3.242-4.637l-7.034-1.243c3.179-2.469 7.09-3.845 11.226-3.845 10.121 0 18.355 8.234 18.355 18.355s-8.234 18.355-18.355 18.355-18.355-8.234-18.355-18.355c0-2.209-1.789-4-4-4-2.209 0-4 1.791-4 4 0 14.533 11.824 26.355 26.355 26.355s26.355-11.822 26.355-26.355-11.825-26.356-26.356-26.356z"/><path d="m66.369 163.727c-1.559-1.568-4.094-1.568-5.656-.012l-4.529 4.512-4.51-4.527c-1.559-1.568-4.094-1.568-5.656-.012-1.566 1.559-1.57 4.092-.012 5.656l4.512 4.529-4.527 4.51c-1.566 1.559-1.57 4.092-.012 5.656.781.785 1.809 1.178 2.834 1.178 1.021 0 2.043-.389 2.822-1.166l4.529-4.512 4.51 4.527c.781.785 1.809 1.178 2.834 1.178 1.021 0 2.043-.389 2.822-1.166 1.566-1.559 1.57-4.092.012-5.656l-4.512-4.529 4.527-4.51c1.567-1.559 1.571-4.092.012-5.656z"/><path d="m60 68c0-6.617-5.383-12-12-12s-12 5.383-12 12 5.383 12 12 12 12-5.383 12-12zm-16 0c0-2.205 1.795-4 4-4s4 1.795 4 4-1.795 4-4 4-4-1.795-4-4z"/><circle cx="48" cy="112" r="4"/><circle cx="240" cy="176" r="4"/></g></svg>