<svg id="line" height="512" viewBox="0 0 64 64" width="512" xmlns="http://www.w3.org/2000/svg"><path d="m63 25v-3a3 3 0 0 0 -3-3h-44a3 3 0 0 0 -3 3v3z" fill="#c4a2fc"/><path d="m13 27v33a3 3 0 0 0 3 3h44a3 3 0 0 0 3-3v-33zm24 33h-18a1 1 0 0 1 0-2h18a1 1 0 0 1 0 2zm0-4h-18a1 1 0 0 1 0-2h18a1 1 0 0 1 0 2zm21 3a1 1 0 0 1 -1 1h-15a1 1 0 0 1 -1-1v-6a1 1 0 0 1 1-1h15a1 1 0 0 1 1 1zm0-11a1 1 0 0 1 -1 1h-15a1 1 0 0 1 -1-1v-6a1 1 0 0 1 1-1h15a1 1 0 0 1 1 1zm0-11a1 1 0 0 1 -1 1h-15a1 1 0 0 1 -1-1v-6a1 1 0 0 1 1-1h15a1 1 0 0 1 1 1z" fill="#c4a2fc"/><g fill="#151a6a"><path d="m28 29a11 11 0 1 0 11 11 11 11 0 0 0 -11-11zm0 20a9 9 0 1 1 9-9 9 9 0 0 1 -9 9z"/><path d="m48 1h-8a3 3 0 0 0 -3 3v3h-16v-3a3 3 0 0 0 -3-3h-14a3 3 0 0 0 -3 3v14a3 3 0 0 0 3 3h3v16h-3a3 3 0 0 0 -3 3v8a3 3 0 0 0 3 3h8a3 3 0 0 0 3-3v-8a3 3 0 0 0 -3-3h-3v-16h9a3 3 0 0 0 3-3v-9h16v3a3 3 0 0 0 3 3h2.82a3 3 0 0 1 -2.82 2h-8a5 5 0 0 0 -5 5v1.59l-1.29-1.3a1 1 0 0 0 -1.42 1.42l3 3a1 1 0 0 0 1.42 0l3-3a1 1 0 0 0 -1.42-1.42l-1.29 1.3v-1.59a3 3 0 0 1 3-3h8a5 5 0 0 0 4.9-4h3.1a3 3 0 0 0 3-3v-8a3 3 0 0 0 -3-3zm-36 38a1 1 0 0 1 1 1v8a1 1 0 0 1 -1 1h-8a1 1 0 0 1 -1-1v-8a1 1 0 0 1 1-1zm7-21a1 1 0 0 1 -1 1h-14a1 1 0 0 1 -1-1v-14a1 1 0 0 1 1-1h14a1 1 0 0 1 1 1zm30-6a1 1 0 0 1 -1 1h-8a1 1 0 0 1 -1-1v-8a1 1 0 0 1 1-1h8a1 1 0 0 1 1 1z"/></g></svg>