<svg width="40" height="40" viewBox="0 0 40 40" fill="none" xmlns="http://www.w3.org/2000/svg">
<path d="M3.03688 11.657H9.21641C9.54 11.657 9.80235 11.3948 9.80235 11.0711C9.80235 10.7474 9.54 10.4852 9.21641 10.4852H3.03688C2.71329 10.4852 2.45094 10.7474 2.45094 11.0711C2.45094 11.3948 2.71321 11.657 3.03688 11.657Z" fill="white"/>
<path d="M9.00452 14.4779H6.56343C6.23984 14.4779 5.97749 14.7402 5.97749 15.0638C5.97749 15.3875 6.23984 15.6498 6.56343 15.6498H9.00452C9.32812 15.6498 9.59046 15.3875 9.59046 15.0638C9.59046 14.7402 9.32812 14.4779 9.00452 14.4779Z" fill="white"/>
<path d="M0.585938 18.5412H6.56344C6.88703 18.5412 7.14937 18.2789 7.14937 17.9552C7.14937 17.6316 6.88703 17.3693 6.56344 17.3693H0.585938C0.262344 17.3693 0 17.6316 0 17.9552C0 18.2789 0.262344 18.5412 0.585938 18.5412Z" fill="white"/>
<path d="M9.80235 28.9288C9.80235 28.6052 9.54 28.3429 9.21641 28.3429H3.03688C2.71329 28.3429 2.45094 28.6052 2.45094 28.9288C2.45094 29.2525 2.71329 29.5148 3.03688 29.5148H9.21641C9.54 29.5148 9.80235 29.2525 9.80235 28.9288Z" fill="white"/>
<path d="M9.00452 24.3502H6.56343C6.23984 24.3502 5.97749 24.6125 5.97749 24.9362C5.97749 25.2599 6.23984 25.5221 6.56343 25.5221H9.00452C9.32812 25.5221 9.59046 25.2599 9.59046 24.9362C9.59046 24.6125 9.32812 24.3502 9.00452 24.3502Z" fill="white"/>
<path d="M7.14937 22.0448C7.14937 21.7211 6.88703 21.4588 6.56344 21.4588H0.585938C0.262344 21.4588 0 21.7211 0 22.0448C0 22.3684 0.262344 22.6307 0.585938 22.6307H6.56344C6.88703 22.6307 7.14937 22.3684 7.14937 22.0448Z" fill="white"/>
<path d="M24.9632 12.9555C25.2869 12.9555 25.5491 12.6932 25.5491 12.3695V11.4752C25.5491 11.1515 25.2869 10.8892 24.9632 10.8892C24.6395 10.8892 24.3773 11.1515 24.3773 11.4752V12.3695C24.3773 12.6932 24.6395 12.9555 24.9632 12.9555Z" fill="white"/>
<path d="M31.4055 13.5577C31.1766 13.3289 30.8056 13.3289 30.5768 13.5577L29.9444 14.1901C29.7155 14.419 29.7155 14.7899 29.9444 15.0188C30.1734 15.2476 30.5442 15.2475 30.773 15.0188L31.4055 14.3863C31.6342 14.1575 31.6342 13.7866 31.4055 13.5577Z" fill="white"/>
<path d="M32.5937 19.4141C32.27 19.4141 32.0077 19.6763 32.0077 20C32.0077 20.3237 32.27 20.5859 32.5937 20.5859H33.488C33.8116 20.5859 34.0739 20.3237 34.0739 20C34.0739 19.6763 33.8116 19.4141 33.488 19.4141H32.5937Z" fill="white"/>
<path d="M30.773 24.9812C30.5441 24.7524 30.1732 24.7524 29.9444 24.9812C29.7155 25.2101 29.7155 25.581 29.9444 25.8099L30.5768 26.4423C30.8058 26.6711 31.1766 26.671 31.4055 26.4423C31.6343 26.2134 31.6343 25.8424 31.4055 25.6136L30.773 24.9812Z" fill="white"/>
<path d="M24.3773 27.6305V28.5248C24.3773 28.8484 24.6395 29.1107 24.9632 29.1107C25.2869 29.1107 25.5491 28.8484 25.5491 28.5248V27.6305C25.5491 27.3068 25.2869 27.0445 24.9632 27.0445C24.6395 27.0445 24.3773 27.3069 24.3773 27.6305Z" fill="white"/>
<path d="M19.1533 24.9812L18.5209 25.6136C18.292 25.8425 18.292 26.2134 18.5209 26.4423C18.7498 26.6711 19.1207 26.671 19.3495 26.4423L19.9819 25.8099C20.2107 25.5809 20.2107 25.21 19.9819 24.9812C19.7531 24.7524 19.3821 24.7524 19.1533 24.9812Z" fill="white"/>
<path d="M16.4384 19.4141C16.1148 19.4141 15.8524 19.6763 15.8524 20C15.8524 20.3237 16.1148 20.5859 16.4384 20.5859H17.3327C17.6563 20.5859 17.9187 20.3237 17.9187 20C17.9187 19.6763 17.6563 19.4141 17.3327 19.4141H16.4384Z" fill="white"/>
<path d="M19.9819 14.1901L19.3495 13.5577C19.1207 13.3289 18.7497 13.3289 18.5209 13.5577C18.2921 13.7866 18.2921 14.1575 18.5209 14.3863L19.1534 15.0188C19.3823 15.2476 19.7532 15.2475 19.9819 15.0188C20.2108 14.7899 20.2108 14.419 19.9819 14.1901Z" fill="white"/>
<path d="M28.114 20C28.114 19.6763 27.8517 19.4141 27.528 19.4141H25.5491V15.0638C25.5491 14.7401 25.2869 14.4778 24.9632 14.4778C24.6395 14.4778 24.3773 14.7401 24.3773 15.0638V20C24.3773 20.3237 24.6395 20.5859 24.9632 20.5859H27.528C27.8516 20.5859 28.114 20.3237 28.114 20Z" fill="white"/>
<path d="M36.0735 19.9033C36.3966 19.8837 36.6425 19.6059 36.6229 19.283C36.2502 13.1343 31.1286 8.31781 24.9631 8.31781C18.5216 8.31781 13.2809 13.5584 13.2809 20.0001C13.2809 26.4416 18.5216 31.6823 24.9631 31.6823C30.7341 31.6823 35.6584 27.454 36.5151 21.7481C36.5631 21.4281 36.3427 21.1298 36.0226 21.0817C35.7034 21.0338 35.4042 21.2541 35.3562 21.5742C34.5866 26.7003 30.1604 30.5105 24.9631 30.5105C19.1677 30.5105 14.4528 25.7955 14.4528 20.0002C14.4528 14.2048 19.1677 9.48977 24.9631 9.48977C30.5101 9.48977 35.1178 13.8227 35.4531 19.3541C35.4727 19.6769 35.7502 19.922 36.0735 19.9033Z" fill="white"/>
<path d="M24.9631 4.9632C22.9021 4.9632 20.8828 5.39078 19.0242 6.19039H8.68602C8.36243 6.19039 8.10008 6.45266 8.10008 6.77633C8.10008 7.1 8.36243 7.36227 8.68602 7.36227H16.8198C15.7201 8.07008 14.7077 8.92383 13.815 9.90945C13.5978 10.1492 13.6161 10.5198 13.8559 10.737C14.0959 10.9543 14.4663 10.9359 14.6836 10.6961C17.3088 7.7975 21.0556 6.13508 24.9631 6.13508C32.6083 6.13508 38.8281 12.3548 38.8281 20C38.8281 27.6451 32.6084 33.8649 24.9631 33.8649C17.318 33.8649 11.0982 27.6452 11.0982 20C11.0982 17.3228 11.863 14.7244 13.3097 12.4855C13.4853 12.2137 13.4073 11.851 13.1356 11.6754C12.8638 11.4998 12.5011 11.5777 12.3254 11.8495C10.7559 14.2783 9.92633 17.0966 9.92633 20C9.92633 25.2942 12.6768 29.9577 16.8236 32.6377H8.6861C8.3625 32.6377 8.10016 32.9 8.10016 33.2237C8.10016 33.5473 8.3625 33.8096 8.6861 33.8096H19.0162C20.8412 34.5986 22.8519 35.0368 24.9632 35.0368C33.2545 35.0368 40 28.2913 40 20C40 11.7087 33.2545 4.9632 24.9631 4.9632Z" fill="white"/>
</svg>
