<svg width="40" height="40" viewBox="0 0 40 40" fill="none" xmlns="http://www.w3.org/2000/svg">
<g clip-path="url(#clip0)">
<path d="M39.4129 38.8258H35.6164V15.6164C35.6164 15.2922 35.3536 15.0293 35.0293 15.0293H28.7671C28.4428 15.0293 28.18 15.2922 28.18 15.6164V38.8258H23.7182V22.5048C23.7182 22.1806 23.4554 21.9177 23.1311 21.9177H16.8689C16.5446 21.9177 16.2818 22.1806 16.2818 22.5048V38.8258H11.82V25.6359C11.82 25.3117 11.5572 25.0488 11.2329 25.0488H4.9707C4.64641 25.0488 4.38359 25.3117 4.38359 25.6359V38.8257H0.587109C0.262812 38.8257 0 39.0886 0 39.4128C0 39.737 0.262812 39.9999 0.587109 39.9999H39.4129C39.7372 39.9999 40 39.737 40 39.4128C39.9999 39.0886 39.7372 38.8258 39.4129 38.8258ZM10.6458 38.8258H5.55773V26.223H10.6458V38.8258ZM22.5441 38.8258H17.456V23.092H22.5441V38.8258ZM34.4423 38.8258H29.3542V16.2035H34.4423V38.8258Z" fill="#B064ED"/>
<path d="M38.1256 0.460091C37.7299 0.110794 37.2033 -0.0519399 36.6799 0.0138414L31.6701 0.640091C30.6756 0.764388 29.9485 1.6979 30.073 2.69345C30.1987 3.69947 31.1191 4.41642 32.1264 4.29064L32.5352 4.23962C26.3863 11.369 19.0764 15.0535 13.9109 16.9052C7.47024 19.2142 2.45719 19.4117 2.40837 19.4134C1.39563 19.445 0.596569 20.2948 0.627194 21.3077C0.657507 22.308 1.46477 23.0915 2.46516 23.0915C2.48376 23.0915 2.50243 23.0913 2.52157 23.0906C2.74446 23.0839 8.0586 22.8963 15.0598 20.4016C18.9956 18.9991 22.699 17.1373 26.067 14.868C26.3359 14.6869 26.407 14.3219 26.2258 14.0531C26.0447 13.7841 25.6799 13.7131 25.4109 13.8942C22.1243 16.1088 18.5091 17.926 14.6656 19.2956C7.83649 21.7289 2.70118 21.9105 2.48641 21.917L2.46516 21.9173C2.1036 21.9173 1.81173 21.6339 1.80079 21.2721C1.78969 20.9057 2.07876 20.5984 2.44532 20.5869C2.49657 20.5852 7.65266 20.396 14.3072 18.0105C19.8821 16.012 27.8926 11.9313 34.3952 3.84033C34.7189 3.43751 34.3766 2.82587 33.8649 2.89001L31.9811 3.12548C31.6545 3.16587 31.3374 2.95189 31.2545 2.63298C31.1548 2.24923 31.4229 1.85423 31.8159 1.80501L36.8258 1.17876C37.217 1.12931 37.5735 1.44548 37.5735 1.839V6.84876C37.5735 7.21564 37.2751 7.51415 36.9081 7.51415C36.5412 7.51415 36.2427 7.21572 36.2427 6.84876V5.33001C36.2427 5.09009 36.0876 4.86572 35.8632 4.78095C35.6314 4.69337 35.3575 4.76689 35.2008 4.95876C33.0081 7.64556 30.5113 10.0768 27.7799 12.1849C27.5232 12.3831 27.4756 12.7517 27.6738 13.0085C27.8719 13.2652 28.2407 13.3126 28.4973 13.1145C30.8766 11.2782 33.082 9.20314 35.0705 6.93165C35.1139 7.90767 35.9216 8.68845 36.9082 8.68845C37.9225 8.68845 38.7477 7.86322 38.7477 6.84892V1.83915C38.7477 1.31181 38.5209 0.809076 38.1256 0.460091Z" fill="#B064ED"/>
</g>
<defs>
<clipPath id="clip0">
<rect width="40" height="40" fill="white"/>
</clipPath>
</defs>
</svg>
