<svg width="40" height="40" viewBox="0 0 40 40" fill="none" xmlns="http://www.w3.org/2000/svg">
<path d="M36.25 0.625H12.5C11.6712 0.625 10.8763 0.95424 10.2903 1.54029C9.70424 2.12634 9.375 2.9212 9.375 3.75V5.625H3.75C3.33962 5.625 2.93326 5.70583 2.55411 5.86288C2.17497 6.01992 1.83047 6.25011 1.54029 6.54029C0.95424 7.12634 0.625 7.9212 0.625 8.75V27.5C0.625 28.3288 0.95424 29.1237 1.54029 29.7097C1.83047 29.9999 2.17497 30.2301 2.55411 30.3871C2.93326 30.5442 3.33962 30.625 3.75 30.625H12.5V34.375H11.25C10.4212 34.375 9.62634 34.7042 9.04029 35.2903C8.45424 35.8763 8.125 36.6712 8.125 37.5V38.75C8.125 38.9158 8.19085 39.0747 8.30806 39.1919C8.42527 39.3092 8.58424 39.375 8.75 39.375H25C25.1658 39.375 25.3247 39.3092 25.4419 39.1919C25.5592 39.0747 25.625 38.9158 25.625 38.75V37.5C25.625 37.0896 25.5442 36.6833 25.3871 36.3041C25.2301 35.925 24.9999 35.5805 24.7097 35.2903C24.4195 35.0001 24.075 34.7699 23.6959 34.6129C23.3167 34.4558 22.9104 34.375 22.5 34.375H21.25V30.625H30C30.8288 30.625 31.6237 30.2958 32.2097 29.7097C32.7958 29.1237 33.125 28.3288 33.125 27.5V23.125H36.25C37.0788 23.125 37.8737 22.7958 38.4597 22.2097C39.0458 21.6237 39.375 20.8288 39.375 20V3.75C39.375 3.33962 39.2942 2.93326 39.1371 2.55411C38.9801 2.17497 38.7499 1.83047 38.4597 1.54029C38.1695 1.25011 37.825 1.01992 37.4459 0.862876C37.0667 0.705831 36.6604 0.625 36.25 0.625ZM12.5 1.875H36.25C36.7473 1.875 37.2242 2.07254 37.5758 2.42417C37.9275 2.77581 38.125 3.25272 38.125 3.75V4.375H10.625V3.75C10.625 3.25272 10.8225 2.77581 11.1742 2.42417C11.5258 2.07254 12.0027 1.875 12.5 1.875ZM24.375 37.5V38.125H9.375V37.5C9.375 37.0027 9.57254 36.5258 9.92417 36.1742C10.2758 35.8225 10.7527 35.625 11.25 35.625H22.5C22.9973 35.625 23.4742 35.8225 23.8258 36.1742C24.1775 36.5258 24.375 37.0027 24.375 37.5ZM20 34.375H13.75V30.625H20V34.375ZM30 29.375H3.75C3.25272 29.375 2.77581 29.1775 2.42417 28.8258C2.07254 28.4742 1.875 27.9973 1.875 27.5V25.625H31.875V27.5C31.875 27.9973 31.6775 28.4742 31.3258 28.8258C30.9742 29.1775 30.4973 29.375 30 29.375ZM31.875 24.375H1.875V8.75C1.875 8.25272 2.07254 7.77581 2.42417 7.42417C2.77581 7.07254 3.25272 6.875 3.75 6.875H9.375V20C9.375 20.8288 9.70424 21.6237 10.2903 22.2097C10.8763 22.7958 11.6712 23.125 12.5 23.125H31.875V24.375ZM36.25 21.875H12.5C12.0027 21.875 11.5258 21.6775 11.1742 21.3258C10.8225 20.9742 10.625 20.4973 10.625 20V5.625H38.125V20C38.125 20.4973 37.9275 20.9742 37.5758 21.3258C37.2242 21.6775 36.7473 21.875 36.25 21.875Z" fill="#A950EF"/>
<path d="M29.375 26.875H30.625V28.125H29.375V26.875Z" fill="#A950EF"/>
<path d="M26.875 26.875H28.125V28.125H26.875V26.875Z" fill="#A950EF"/>
<path d="M24.375 26.875H25.625V28.125H24.375V26.875Z" fill="#A950EF"/>
<path d="M36.25 6.875H12.5C12.3342 6.875 12.1753 6.94085 12.0581 7.05806C11.9408 7.17527 11.875 7.33424 11.875 7.5V20C11.875 20.1658 11.9408 20.3247 12.0581 20.4419C12.1753 20.5592 12.3342 20.625 12.5 20.625H36.25C36.4158 20.625 36.5747 20.5592 36.6919 20.4419C36.8092 20.3247 36.875 20.1658 36.875 20V7.5C36.875 7.33424 36.8092 7.17527 36.6919 7.05806C36.5747 6.94085 36.4158 6.875 36.25 6.875ZM16.875 18.125H19.375V16.875H16.875V15.625H18.125V14.375H16.875V13.125H18.125V11.875H16.875V10.625H20.625V19.375H16.875V18.125ZM26.3188 14.2688C26.1765 14.3377 26.0206 14.374 25.8625 14.375H25.3875C25.2294 14.374 25.0735 14.3377 24.9312 14.2688C24.7632 14.1847 24.622 14.0553 24.5236 13.8951C24.4253 13.7349 24.3738 13.5504 24.375 13.3625C24.3743 13.2196 24.4138 13.0794 24.4889 12.9578C24.5641 12.8362 24.6719 12.7383 24.8 12.675C25.0251 12.5642 25.2187 12.3985 25.3629 12.1931C25.5071 11.9878 25.5972 11.7494 25.625 11.5L26.4563 12.3312C26.5905 12.4671 26.6967 12.6281 26.7685 12.8051C26.8404 12.9821 26.8766 13.1715 26.875 13.3625C26.8762 13.5504 26.8247 13.7349 26.7264 13.8951C26.628 14.0553 26.4868 14.1847 26.3188 14.2688ZM25 15.5813C25.1279 15.6054 25.2574 15.62 25.3875 15.625H25.8625C25.9926 15.62 26.1221 15.6054 26.25 15.5813V19.375H25V15.5813ZM30.625 14.375H31.875V19.375H30.625V14.375ZM30.8687 13.125L31.25 11.975L31.6313 13.125H30.8687ZM35.625 19.375H33.125V13.75C33.134 13.6836 33.134 13.6164 33.125 13.55L31.875 9.8C31.8339 9.67496 31.7544 9.56608 31.6478 9.4889C31.5411 9.41171 31.4129 9.37016 31.2812 9.37016C31.1496 9.37016 31.0214 9.41171 30.9147 9.4889C30.8081 9.56608 30.7286 9.67496 30.6875 9.8L29.4375 13.55C29.4073 13.6134 29.3863 13.6807 29.375 13.75V19.375H27.5V14.9188C27.9017 14.5003 28.1257 13.9425 28.125 13.3625C28.1268 13.0069 28.0575 12.6546 27.9212 12.3261C27.7849 11.9977 27.5843 11.6998 27.3312 11.45L25.4562 9.575C25.3684 9.48828 25.2568 9.42953 25.1355 9.40617C25.0143 9.38281 24.8888 9.39589 24.775 9.44375C24.6614 9.48745 24.563 9.56337 24.492 9.66218C24.4209 9.76099 24.3803 9.8784 24.375 10V11.3438C24.3743 11.3877 24.3618 11.4307 24.3387 11.4681C24.3156 11.5055 24.2828 11.536 24.2438 11.5562C23.9073 11.723 23.6243 11.9805 23.4266 12.2997C23.2289 12.6189 23.1244 12.987 23.125 13.3625C23.1243 13.9425 23.3483 14.5003 23.75 14.9188V19.375H21.875V10C21.875 9.83424 21.8092 9.67527 21.6919 9.55806C21.5747 9.44085 21.4158 9.375 21.25 9.375H16.25C16.0842 9.375 15.9253 9.44085 15.8081 9.55806C15.6908 9.67527 15.625 9.83424 15.625 10V19.375H13.125V8.125H35.625V19.375Z" fill="#A950EF"/>
</svg>
