<svg width="61" height="61" viewBox="0 0 61 61" fill="none" xmlns="http://www.w3.org/2000/svg">
<g clip-path="url(#clip0)">
<path d="M59.7696 58.4252H54.0749V23.6111C54.0749 23.1248 53.6807 22.7305 53.1942 22.7305H43.8009C43.3145 22.7305 42.9203 23.1248 42.9203 23.6111V58.4252H36.2276V33.9438C36.2276 33.4575 35.8334 33.0631 35.3469 33.0631H25.9536C25.4672 33.0631 25.073 33.4575 25.073 33.9438V58.4252H18.3803V38.6404C18.3803 38.1541 17.986 37.7598 17.4996 37.7598H8.10632C7.61988 37.7598 7.22566 38.1541 7.22566 38.6404V58.4251H1.53093C1.04449 58.4251 0.650269 58.8194 0.650269 59.3057C0.650269 59.7921 1.04449 60.1864 1.53093 60.1864H59.7696C60.256 60.1864 60.6503 59.7921 60.6503 59.3057C60.6502 58.8194 60.256 58.4252 59.7696 58.4252ZM16.6189 58.4252H8.98687V39.5211H16.6189V58.4252ZM34.4664 58.4252H26.8343V34.8245H34.4664V58.4252ZM52.3137 58.4252H44.6816V24.4918H52.3137V58.4252Z" fill="#A13DF0"/>
<path d="M57.8387 0.876844C57.2452 0.352898 56.4552 0.108797 55.67 0.207469L48.1554 1.14684C46.6636 1.33329 45.5731 2.73356 45.7597 4.22688C45.9483 5.73591 47.3289 6.81134 48.8399 6.62266L49.453 6.54614C40.2298 17.2402 29.2649 22.767 21.5167 25.5446C11.8556 29.0081 4.33606 29.3043 4.26282 29.3068C2.74372 29.3542 1.54512 30.6289 1.59106 32.1482C1.63653 33.6487 2.84743 34.824 4.34801 34.824C4.3759 34.824 4.40391 34.8236 4.43262 34.8227C4.76696 34.8126 12.7382 34.5311 23.2399 30.7891C29.1436 28.6853 34.6988 25.8926 39.7508 22.4887C40.1542 22.217 40.2608 21.6695 39.989 21.2663C39.7173 20.8628 39.17 20.7563 38.7666 21.0281C33.8367 24.3498 28.4139 27.0757 22.6487 29.13C12.405 32.7801 4.70204 33.0524 4.37989 33.0622L4.34801 33.0626C3.80567 33.0626 3.36786 32.6376 3.35145 32.0949C3.33481 31.5453 3.7684 31.0843 4.31825 31.067C4.39512 31.0646 12.1293 30.7807 22.1111 27.2024C30.4734 24.2047 42.4891 18.0836 52.243 5.94719C52.7286 5.34298 52.2152 4.42552 51.4475 4.52173L48.6219 4.87493C48.1321 4.93552 47.6563 4.61454 47.532 4.13618C47.3824 3.56055 47.7846 2.96805 48.3741 2.89423L55.889 1.95485C56.4757 1.88067 57.0106 2.35493 57.0106 2.9452V10.4599C57.0106 11.0102 56.5629 11.4579 56.0125 11.4579C55.462 11.4579 55.0144 11.0103 55.0144 10.4599V8.18173C55.0144 7.82184 54.7816 7.48528 54.4451 7.35813C54.0974 7.22677 53.6865 7.33704 53.4515 7.62485C50.1623 11.655 46.4173 15.3019 42.32 18.4641C41.9351 18.7613 41.8637 19.3143 42.1609 19.6994C42.4581 20.0845 43.0113 20.1556 43.3962 19.8585C46.9651 17.104 50.2733 13.9914 53.256 10.5842C53.3211 12.0482 54.5326 13.2194 56.0126 13.2194C57.534 13.2194 58.7719 11.9815 58.7719 10.4601V2.94544C58.7718 2.15442 58.4317 1.40032 57.8387 0.876844Z" fill="#A13DF0"/>
</g>
<defs>
<clipPath id="clip0">
<rect width="60" height="60" fill="white" transform="translate(0.650269 0.186401)"/>
</clipPath>
</defs>
</svg>
