<svg width="90" height="30" viewBox="0 0 90 30" fill="none" xmlns="http://www.w3.org/2000/svg">
<rect y="2" width="90" height="25" rx="12.5" fill="#7B55CC" fill-opacity="0.74"/>
<g clip-path="url(#clip0)">
<path d="M45.8231 22.7592L59.6606 8.8833C60.1137 8.42867 60.113 7.69262 59.6583 7.23875C59.2037 6.78524 58.4672 6.78641 58.0137 7.2411L44.9998 20.291L31.986 7.24063C31.5325 6.786 30.7965 6.78483 30.3418 7.23829C30.1139 7.4658 29.9999 7.76387 29.9999 8.06194C29.9999 8.35924 30.1131 8.65613 30.3394 8.88324L44.1766 22.7592C44.3944 22.9781 44.6909 23.101 44.9998 23.101C45.3087 23.101 45.6049 22.9778 45.8231 22.7592Z" fill="white"/>
</g>
<defs>
<clipPath id="clip0">
<rect width="30" height="30" fill="white" transform="translate(60) rotate(90)"/>
</clipPath>
</defs>
</svg>
