<svg width="40" height="40" viewBox="0 0 40 40" fill="none" xmlns="http://www.w3.org/2000/svg">
<g clip-path="url(#clip0)">
<path d="M37.7839 4.06679C37.6442 3.82581 37.3867 3.67756 37.1083 3.67756H33.3439L31.4567 0.394942C31.3174 0.152558 31.0591 0.00312805 30.7796 0.00312805H26.5591C26.28 0.00312805 26.0221 0.152011 25.8826 0.39377L24.1481 3.39854L22.7846 2.68216C22.8003 2.57249 22.8089 2.46048 22.8089 2.34651C22.8089 1.05437 21.7577 0.00312805 20.4655 0.00312805C19.1734 0.00312805 18.1222 1.05437 18.1222 2.34651C18.1222 3.63866 19.1734 4.6899 20.4655 4.6899C21.0794 4.6899 21.6387 4.45228 22.0569 4.06461L23.8879 5.02656L25.8848 8.44291C26.0248 8.68256 26.2816 8.82988 26.5591 8.82988H30.3196L31.9724 11.7646L30.4004 14.1319C30.2204 14.0875 30.0326 14.0634 29.8391 14.0634C28.5469 14.0634 27.4957 15.1147 27.4957 16.4068C27.4957 17.699 28.5469 18.7502 29.8391 18.7502C30.1947 18.7502 30.538 18.6713 30.8496 18.522L32.4106 20.083C32.2614 20.3946 32.1825 20.738 32.1825 21.0936C32.1825 22.3857 33.2337 23.437 34.5259 23.437C35.818 23.437 36.8692 22.3857 36.8692 21.0936C36.8692 19.8015 35.818 18.7502 34.5259 18.7502C34.1703 18.7502 33.8269 18.8291 33.5153 18.9784L31.9543 17.4174C32.1035 17.1058 32.1825 16.7624 32.1825 16.4068C32.1825 15.8753 32.0044 15.3849 31.705 14.9913L33.3068 12.5793H37.1083C37.3888 12.5793 37.6478 12.4289 37.7868 12.1852L39.8974 8.48501C40.0353 8.24333 40.0342 7.94666 39.8946 7.70607L37.7839 4.06679ZM20.4655 3.12764C20.0348 3.12764 19.6844 2.77723 19.6844 2.34651C19.6844 1.9158 20.0348 1.56538 20.4655 1.56538C20.8963 1.56538 21.2467 1.9158 21.2467 2.34651C21.2467 2.77723 20.8963 3.12764 20.4655 3.12764ZM25.3526 4.43673L27.0101 1.56538H30.3276L31.9865 4.45087L30.3324 7.26762H27.0073L25.3526 4.43673ZM29.058 16.4068C29.058 15.9761 29.4084 15.6257 29.8391 15.6257C30.2698 15.6257 30.6202 15.9761 30.6202 16.4068C30.6202 16.8381 30.2703 17.188 29.8391 17.188C29.4084 17.188 29.058 16.8375 29.058 16.4068ZM35.307 21.0936C35.307 21.5243 34.9566 21.8747 34.5259 21.8747C34.0951 21.8747 33.7447 21.5243 33.7447 21.0936C33.7447 20.6623 34.0946 20.3125 34.5259 20.3125C34.9566 20.3125 35.307 20.6629 35.307 21.0936ZM36.6545 11.017H33.3444L31.679 8.05976L33.3349 5.23669H36.6583L38.3178 8.10116L36.6545 11.017Z" fill="white"/>
<path d="M15.0758 16.0943C14.8192 16.0943 14.579 16.2203 14.4331 16.4315C13.9217 17.1717 12.7324 19.0012 12.7324 20C12.7324 21.2921 13.7836 22.3434 15.0758 22.3434C16.3679 22.3434 17.4192 21.2921 17.4192 20C17.4192 19.0012 16.2298 17.1717 15.7185 16.4315C15.5726 16.2203 15.3324 16.0943 15.0758 16.0943ZM15.0758 20.7811C14.6451 20.7811 14.2946 20.4307 14.2946 20.0009C14.301 19.7621 14.6259 19.0813 15.0759 18.3231C15.5255 19.0804 15.8503 19.761 15.8569 20.0007C15.8566 20.4311 15.5063 20.7811 15.0758 20.7811Z" fill="white"/>
<path d="M15.0758 39.9969C15.5072 39.9969 15.8569 39.6472 15.8569 39.2158C15.8569 38.7844 15.5072 38.4347 15.0758 38.4347C14.6444 38.4347 14.2946 38.7844 14.2946 39.2158C14.2946 39.6472 14.6444 39.9969 15.0758 39.9969Z" fill="white"/>
<path d="M20.778 18.2452V11.4076H21.5591C21.9905 11.4076 22.3403 11.0578 22.3403 10.6265V7.50198C22.3403 7.07064 21.9905 6.72086 21.5591 6.72086H8.59241C8.16099 6.72086 7.81128 7.07064 7.81128 7.50198V10.6265C7.81128 11.0578 8.16099 11.4076 8.59241 11.4076H9.37354V18.2452L0.370958 35.3952C0.128261 35.847 0 36.3577 0 36.8724C0 38.5952 1.40166 39.9969 3.12451 39.9969H11.5607C11.9921 39.9969 12.3418 39.6471 12.3418 39.2158C12.3418 38.7844 11.9921 38.4346 11.5607 38.4346H3.12451C2.26308 38.4346 1.56226 37.7338 1.56226 36.8724C1.56226 36.6104 1.62482 36.3614 1.74832 36.1323C1.74973 36.1298 6.5264 27.0302 6.5264 27.0302H23.6251C23.6251 27.0302 28.4017 36.1298 28.4031 36.1323C28.5266 36.3614 28.5892 36.6103 28.5892 36.8724C28.5892 37.7338 27.8884 38.4346 27.0269 38.4346H18.5908C18.1594 38.4346 17.8097 38.7844 17.8097 39.2158C17.8097 39.6471 18.1594 39.9969 18.5908 39.9969H27.027C28.7499 39.9969 30.1515 38.5952 30.1515 36.8724C30.1515 36.3577 30.0233 35.847 29.7806 35.3952L20.778 18.2452ZM9.37354 8.28311H20.778V9.84537H9.37354V8.28311ZM7.34651 25.4679L10.8463 18.8008C10.905 18.6888 10.9358 18.5642 10.9358 18.4378V11.4076H19.2157V18.4378C19.2157 18.5642 19.2464 18.6888 19.3053 18.8008L22.805 25.4679H7.34651Z" fill="white"/>
</g>
<defs>
<clipPath id="clip0">
<rect width="40" height="40" fill="white"/>
</clipPath>
</defs>
</svg>
