<svg width="150" height="88" viewBox="0 0 150 88" fill="none" xmlns="http://www.w3.org/2000/svg">
<g clip-path="url(#clip0)">
<path d="M19.3135 70.6087V0.66302H41.7303C51.726 0.66302 56.7235 6.09236 56.7235 16.9511C56.7235 24.9076 53.4653 30.5978 46.9484 34.0217C53.9062 35.7499 57.3852 41.049 57.3852 49.9186C57.3852 63.712 51.9097 70.6087 40.9584 70.6087H19.3135ZM40.5544 63.2716C46.8261 63.2716 49.962 59.0327 49.962 50.5544C49.962 42.3043 45.7602 38.1795 37.3571 38.1795H34.4172V32.2608C44.4619 30.4674 49.4841 25.6413 49.4841 17.7826C49.4841 11.2608 46.6913 7.99998 41.1055 7.99998H26.112V63.2716H40.5544ZM67.4543 68.1631V59.8476C72.9667 62.4563 78.9199 63.7607 85.3142 63.7607C94.3542 63.7607 98.8743 59.3586 98.8743 50.5544C98.8743 43.0542 95.5424 39.3043 88.8787 39.3043H82.1169C71.117 39.3043 65.6169 32.9456 65.6169 20.2282C65.6169 6.85869 72.6604 0.173889 86.7473 0.173889C92.8722 0.173889 98.5683 1.15215 103.836 3.10867V11.4239C98.5683 8.81521 92.8722 7.51086 86.7473 7.51086C77.1928 7.51086 72.4153 11.75 72.4153 20.2282C72.4153 27.7283 75.6492 31.4782 82.1169 31.4782H88.8787C100.075 31.4782 105.673 37.8368 105.673 50.5544C105.673 64.2501 98.8866 71.0977 85.3142 71.0977C78.9199 71.0977 72.9667 70.1196 67.4543 68.1631ZM122.393 0.66302V63.2716H149.882V70.6087H115.595V0.66302H122.393Z" fill="#C8AA3E"/>
<path d="M13.8425 85.2174V76.3151H16.0291C16.7549 76.3151 17.3 76.5148 17.6644 76.9144C18.0319 77.3137 18.2156 77.905 18.2156 78.6876C18.2156 79.1033 18.1268 79.472 17.9492 79.7941C17.7716 80.112 17.5297 80.3586 17.2234 80.5339C17.5848 80.6685 17.8696 80.9252 18.0778 81.3043C18.2891 81.6793 18.3948 82.1276 18.3948 82.6494C18.3948 83.4483 18.2003 84.0762 17.8114 84.5325C17.4225 84.9892 16.8728 85.2174 16.1623 85.2174H13.8425ZM14.7245 81.0536V84.2574H16.1807C16.591 84.2574 16.9141 84.1169 17.1499 83.8355C17.3888 83.5502 17.5082 83.1589 17.5082 82.6616C17.5082 81.5896 17.0703 81.0536 16.1944 81.0536H14.7245ZM14.7245 80.112H16.0567C16.4425 80.112 16.7503 79.9836 16.98 79.7269C17.2127 79.4703 17.3291 79.1217 17.3291 78.6814C17.3291 78.1923 17.2219 77.8376 17.0075 77.6174C16.7931 77.3934 16.467 77.2814 16.0291 77.2814H14.7245V80.112ZM22.6392 84.5631C22.3085 85.0807 21.8231 85.3398 21.1831 85.3398C20.6533 85.3398 20.249 85.136 19.9704 84.7283C19.6948 84.3165 19.5554 83.7092 19.5524 82.9061V78.6017H20.4022V82.8758C20.4022 83.8783 20.7084 84.3798 21.3209 84.3798C21.9701 84.3798 22.4019 84.0577 22.6163 83.4136V78.6017H23.4661V85.2174H22.6576L22.6392 84.5631ZM27.6554 83.4626C27.6554 83.1569 27.5681 82.9203 27.3936 82.7534C27.2221 82.5823 26.9206 82.4355 26.4886 82.313C26.06 82.1909 25.7185 82.0442 25.4643 81.873C25.2132 81.7019 25.0264 81.4981 24.9039 81.2616C24.7845 81.025 24.7247 80.744 24.7247 80.4177C24.7247 79.8758 24.8962 79.417 25.2392 79.0421C25.5853 78.6671 26.0263 78.4796 26.5623 78.4796C27.1257 78.4796 27.582 78.6734 27.9311 79.0605C28.2831 79.4476 28.4592 79.943 28.4592 80.5461H27.605C27.605 80.2365 27.5054 79.9694 27.3063 79.7454C27.1103 79.521 26.8623 79.409 26.5623 79.409C26.2529 79.409 26.011 79.4988 25.8364 79.6779C25.6618 79.8574 25.5745 80.0918 25.5745 80.3812C25.5745 80.6542 25.6557 80.8602 25.818 80.9986C25.9803 81.1374 26.2727 81.2696 26.6953 81.3962C27.121 81.5224 27.4657 81.6734 27.7288 81.8483C27.9923 82.0236 28.1867 82.2358 28.3124 82.4845C28.441 82.729 28.5052 83.0285 28.5052 83.3833C28.5052 83.9743 28.3275 84.449 27.9724 84.8076C27.6173 85.1624 27.1563 85.3398 26.5897 85.3398C26.1917 85.3398 25.8394 85.2459 25.5332 85.0584C25.227 84.8709 24.9866 84.6101 24.812 84.2758C24.6405 83.9374 24.5548 83.5725 24.5548 83.1812H25.4046C25.4199 83.5603 25.5332 83.8623 25.7445 84.0863C25.9589 84.3064 26.2406 84.4163 26.5897 84.4163C26.9112 84.4163 27.1686 84.3308 27.3614 84.1596C27.5574 83.9843 27.6554 83.752 27.6554 83.4626ZM30.5357 85.2174H29.6859V78.6017H30.5357V85.2174ZM29.6169 76.8473C29.6169 76.6636 29.6582 76.5089 29.741 76.3826C29.8268 76.256 29.9522 76.193 30.1176 76.193C30.283 76.193 30.4085 76.256 30.4942 76.3826C30.5802 76.5089 30.623 76.6636 30.623 76.8473C30.623 77.0306 30.5802 77.1833 30.4942 77.3057C30.4085 77.4278 30.283 77.489 30.1176 77.489C29.9522 77.489 29.8268 77.4278 29.741 77.3057C29.6582 77.1833 29.6169 77.0306 29.6169 76.8473ZM32.7037 78.6017L32.7314 79.4334C33.1111 78.7976 33.6073 78.4796 34.2196 78.4796C35.2701 78.4796 35.7998 79.2682 35.809 80.8459V85.2174H34.9592V80.8396C34.9563 80.3628 34.8734 80.0101 34.7112 79.7819C34.552 79.5537 34.3025 79.4396 33.9625 79.4396C33.6868 79.4396 33.4448 79.5374 33.2368 79.7329C33.0285 79.9287 32.8662 80.1854 32.7497 80.5033V85.2174H31.8998V78.6017H32.7037ZM39.1531 85.3398C38.4795 85.3398 37.9312 85.0463 37.5086 84.4591C37.0861 83.8682 36.8747 83.0796 36.8747 82.0932V81.8852C36.8747 81.2289 36.9682 80.6442 37.1551 80.1304C37.3448 79.6129 37.6082 79.2094 37.945 78.92C38.285 78.6264 38.6525 78.4796 39.0476 78.4796C39.6938 78.4796 40.1958 78.7628 40.5544 79.3294C40.9126 79.896 41.0917 80.7071 41.0917 81.7628V82.2337H37.7245C37.7368 82.8859 37.8792 83.4136 38.1518 83.8174C38.4275 84.2167 38.7766 84.4163 39.1991 84.4163C39.4991 84.4163 39.7534 84.3349 39.9617 84.1718C40.17 84.0087 40.3521 83.7927 40.5084 83.5238L41.0274 84.0619C40.6108 84.9137 39.9862 85.3398 39.1531 85.3398ZM39.0476 79.409C38.7045 79.409 38.4167 79.576 38.1839 79.9103C37.9513 80.2403 37.8073 80.705 37.7522 81.3043H40.2418V81.2188C40.2173 80.6442 40.101 80.1996 39.8927 79.8859C39.6844 79.568 39.4027 79.409 39.0476 79.409ZM44.9734 83.4626C44.9734 83.1569 44.8861 82.9203 44.7115 82.7534C44.5398 82.5823 44.2383 82.4355 43.8065 82.313C43.3777 82.1909 43.0364 82.0442 42.7822 81.873C42.531 81.7019 42.3442 81.4981 42.2216 81.2616C42.1022 81.025 42.0426 80.744 42.0426 80.4177C42.0426 79.8758 42.214 79.417 42.5572 79.0421C42.9031 78.6671 43.344 78.4796 43.88 78.4796C44.4434 78.4796 44.8997 78.6734 45.2488 79.0605C45.6011 79.4476 45.7772 79.943 45.7772 80.5461H44.9227C44.9227 80.2365 44.8231 79.9694 44.6242 79.7454C44.4282 79.521 44.18 79.409 43.88 79.409C43.5706 79.409 43.3288 79.4988 43.1543 79.6779C42.9797 79.8574 42.8924 80.0918 42.8924 80.3812C42.8924 80.6542 42.9734 80.8602 43.1357 80.9986C43.2983 81.1374 43.5907 81.2696 44.0133 81.3962C44.4389 81.5224 44.7834 81.6734 45.0468 81.8483C45.3102 82.0236 45.5046 82.2358 45.6301 82.4845C45.7589 82.729 45.8232 83.0285 45.8232 83.3833C45.8232 83.9743 45.6455 84.449 45.2903 84.8076C44.9349 85.1624 44.4742 85.3398 43.9077 85.3398C43.5094 85.3398 43.1572 85.2459 42.8511 85.0584C42.5449 84.8709 42.3045 84.6101 42.1299 84.2758C41.9585 83.9374 41.8725 83.5725 41.8725 83.1812H42.7223C42.7377 83.5603 42.8511 83.8623 43.0623 84.0863C43.2766 84.3064 43.5585 84.4163 43.9077 84.4163C44.2291 84.4163 44.4862 84.3308 44.6794 84.1596C44.8754 83.9843 44.9734 83.752 44.9734 83.4626ZM49.8241 83.4626C49.8241 83.1569 49.7368 82.9203 49.5622 82.7534C49.3908 82.5823 49.0892 82.4355 48.6572 82.313C48.2287 82.1909 47.8871 82.0442 47.6329 81.873C47.3817 81.7019 47.1951 81.4981 47.0726 81.2616C46.9531 81.025 46.8933 80.744 46.8933 80.4177C46.8933 79.8758 47.065 79.417 47.4079 79.0421C47.7538 78.6671 48.195 78.4796 48.7309 78.4796C49.2943 78.4796 49.7506 78.6734 50.0998 79.0605C50.4518 79.4476 50.6279 79.943 50.6279 80.5461H49.7736C49.7736 80.2365 49.6741 79.9694 49.4749 79.7454C49.2789 79.521 49.0309 79.409 48.7309 79.409C48.4215 79.409 48.1795 79.4988 48.005 79.6779C47.8304 79.8574 47.7431 80.0918 47.7431 80.3812C47.7431 80.6542 47.8244 80.8602 47.9867 80.9986C48.149 81.1374 48.4414 81.2696 48.8639 81.3962C49.2896 81.5224 49.6343 81.6734 49.8975 81.8483C50.1609 82.0236 50.3553 82.2358 50.481 82.4845C50.6096 82.729 50.6739 83.0285 50.6739 83.3833C50.6739 83.9743 50.4962 84.449 50.141 84.8076C49.7859 85.1624 49.3249 85.3398 48.7584 85.3398C48.3604 85.3398 48.0081 85.2459 47.7018 85.0584C47.3956 84.8709 47.1552 84.6101 46.9806 84.2758C46.8092 83.9374 46.7234 83.5725 46.7234 83.1812H47.5733C47.5884 83.5603 47.7018 83.8623 47.9133 84.0863C48.1275 84.3064 48.4092 84.4163 48.7584 84.4163C49.0798 84.4163 49.3372 84.3308 49.5301 84.1596C49.7261 83.9843 49.8241 83.752 49.8241 83.4626ZM56.2184 81.2494C55.4619 80.96 54.9107 80.6052 54.5647 80.1854C54.2216 79.7614 54.0502 79.2396 54.0502 78.6202C54.0502 77.9193 54.26 77.3405 54.6795 76.8838C55.102 76.4233 55.6503 76.193 56.324 76.193C56.7834 76.193 57.1921 76.3113 57.5506 76.5475C57.9118 76.784 58.1906 77.1099 58.3866 77.5259C58.5857 77.9416 58.685 78.3962 58.685 78.8894H57.7986C57.7986 78.3513 57.67 77.9294 57.4126 77.6236C57.1555 77.3137 56.7925 77.1589 56.324 77.1589C55.8891 77.1589 55.5491 77.2873 55.3043 77.544C55.0623 77.7969 54.9413 78.1496 54.9413 78.6017C54.9413 78.9645 55.0563 79.2723 55.286 79.5252C55.5186 79.7739 55.9121 80.0021 56.4664 80.2101C57.0238 80.4177 57.4586 80.648 57.7709 80.9009C58.0863 81.1496 58.3192 81.441 58.4692 81.7753C58.6223 82.1092 58.6989 82.5026 58.6989 82.9551C58.6989 83.6765 58.4875 84.2553 58.0649 84.6915C57.6423 85.1235 57.0774 85.3398 56.37 85.3398C55.9106 85.3398 55.482 85.2236 55.0837 84.9913C54.6857 84.7548 54.3779 84.4327 54.1605 84.025C53.9462 83.6174 53.8388 83.1548 53.8388 82.6372H54.7254C54.7254 83.1753 54.8739 83.6014 55.171 83.9151C55.4713 84.2247 55.8708 84.3798 56.37 84.3798C56.8354 84.3798 57.1921 84.2536 57.4403 84.0007C57.6883 83.7478 57.8125 83.4035 57.8125 82.9673C57.8125 82.5311 57.6975 82.1951 57.4678 81.9586C57.2381 81.7179 56.8218 81.4817 56.2184 81.2494ZM59.4753 81.8483C59.4753 81.2003 59.5701 80.6174 59.7601 80.0998C59.953 79.5823 60.2193 79.1826 60.5592 78.9016C60.9024 78.6202 61.2928 78.4796 61.7308 78.4796C62.4073 78.4796 62.954 78.7913 63.3706 79.4149C63.7903 80.0386 63.9998 80.8682 63.9998 81.9036V81.9829C63.9998 82.6271 63.9065 83.2059 63.7197 83.7193C63.536 84.2289 63.271 84.6264 62.925 84.9116C62.5819 85.1969 62.187 85.3398 61.7399 85.3398C61.0662 85.3398 60.5195 85.0278 60.0998 84.4042C59.6835 83.7805 59.4753 82.9551 59.4753 81.928V81.8483ZM60.3295 81.9829C60.3295 82.7169 60.4568 83.3057 60.7108 83.7499C60.9682 84.1944 61.3111 84.4163 61.7399 84.4163C62.1716 84.4163 62.5147 84.1923 62.7687 83.744C63.023 83.2915 63.15 82.6595 63.15 81.8483C63.15 81.1231 63.0199 80.536 62.7596 80.0876C62.5025 79.6351 62.1593 79.409 61.7308 79.409C61.3111 79.409 60.9727 79.6309 60.7155 80.0755C60.4584 80.5196 60.3295 81.1555 60.3295 81.9829ZM65.989 85.2174H65.1392V75.8261H65.989V85.2174ZM70.4216 84.5631C70.091 85.0807 69.6055 85.3398 68.9655 85.3398C68.4358 85.3398 68.0315 85.136 67.753 84.7283C67.4773 84.3165 67.338 83.7092 67.3349 82.9061V78.6017H68.1847V82.8758C68.1847 83.8783 68.491 84.3798 69.1035 84.3798C69.7526 84.3798 70.1843 84.0577 70.3989 83.4136V78.6017H71.2487V85.2174H70.4402L70.4216 84.5631ZM73.6971 77V78.6017H74.6247V79.4762H73.6971V83.5788C73.6971 83.8438 73.7383 84.0435 73.8209 84.1781C73.9038 84.3085 74.0446 84.3736 74.2435 84.3736C74.3415 84.3736 74.4763 84.3492 74.6478 84.3002V85.2174C74.4243 85.2988 74.2069 85.3398 73.9955 85.3398C73.6158 85.3398 73.3294 85.1868 73.1365 84.881C72.9436 84.5753 72.8472 84.1412 72.8472 83.5788V79.4762H71.9423V78.6017H72.8472V77H73.6971ZM76.545 85.2174H75.6951V78.6017H76.545V85.2174ZM75.6261 76.8473C75.6261 76.6636 75.6677 76.5089 75.7503 76.3826C75.836 76.256 75.9617 76.193 76.1268 76.193C76.2923 76.193 76.418 76.256 76.5037 76.3826C76.5894 76.5089 76.6322 76.6636 76.6322 76.8473C76.6322 77.0306 76.5894 77.1833 76.5037 77.3057C76.418 77.4278 76.2923 77.489 76.1268 77.489C75.9617 77.489 75.836 77.4278 75.7503 77.3057C75.6677 77.1833 75.6261 77.0306 75.6261 76.8473ZM77.6841 81.8483C77.6841 81.2003 77.7792 80.6174 77.9689 80.0998C78.162 79.5823 78.4283 79.1826 78.7683 78.9016C79.1112 78.6202 79.5018 78.4796 79.9396 78.4796C80.6164 78.4796 81.1631 78.7913 81.5796 79.4149C81.9991 80.0386 82.2089 80.8682 82.2089 81.9036V81.9829C82.2089 82.6271 82.1156 83.2059 81.9288 83.7193C81.745 84.2289 81.4801 84.6264 81.1341 84.9116C80.791 85.1969 80.3958 85.3398 79.949 85.3398C79.275 85.3398 78.7286 85.0278 78.3089 84.4042C77.8923 83.7805 77.6841 82.9551 77.6841 81.928V81.8483ZM78.5386 81.9829C78.5386 82.7169 78.6656 83.3057 78.9199 83.7499C79.177 84.1944 79.5201 84.4163 79.949 84.4163C80.3807 84.4163 80.7235 84.1923 80.9778 83.744C81.2321 83.2915 81.3591 82.6595 81.3591 81.8483C81.3591 81.1231 81.2289 80.536 80.9687 80.0876C80.7113 79.6351 80.3684 79.409 79.9396 79.409C79.5201 79.409 79.1817 79.6309 78.9246 80.0755C78.6672 80.5196 78.5386 81.1555 78.5386 81.9829ZM84.0784 78.6017L84.1061 79.4334C84.4858 78.7976 84.9818 78.4796 85.5943 78.4796C86.6449 78.4796 87.1746 79.2682 87.1837 80.8459V85.2174H86.3339V80.8396C86.3308 80.3628 86.2482 80.0101 86.0859 79.7819C85.9265 79.5537 85.6769 79.4396 85.3372 79.4396C85.0615 79.4396 84.8195 79.5374 84.6112 79.7329C84.403 79.9287 84.2407 80.1854 84.1244 80.5033V85.2174H83.2746V78.6017H84.0784ZM91.3594 83.4626C91.3594 83.1569 91.2721 82.9203 91.0976 82.7534C90.9259 82.5823 90.6243 82.4355 90.1926 82.313C89.7638 82.1909 89.4222 82.0442 89.1682 81.873C88.9171 81.7019 88.7302 81.4981 88.6077 81.2616C88.4883 81.025 88.4287 80.744 88.4287 80.4177C88.4287 79.8758 88.6001 79.417 88.943 79.0421C89.2892 78.6671 89.7301 78.4796 90.266 78.4796C90.8295 78.4796 91.2857 78.6734 91.6349 79.0605C91.9871 79.4476 92.1633 79.943 92.1633 80.5461H91.3087C91.3087 80.2365 91.2092 79.9694 91.0103 79.7454C90.8143 79.521 90.566 79.409 90.266 79.409C89.9566 79.409 89.7149 79.4988 89.5403 79.6779C89.3658 79.8574 89.2785 80.0918 89.2785 80.3812C89.2785 80.6542 89.3595 80.8602 89.5218 80.9986C89.6841 81.1374 89.9768 81.2696 90.3993 81.3962C90.825 81.5224 91.1694 81.6734 91.4329 81.8483C91.6963 82.0236 91.8907 82.2358 92.0161 82.4845C92.1447 82.729 92.2092 83.0285 92.2092 83.3833C92.2092 83.9743 92.0315 84.449 91.6761 84.8076C91.321 85.1624 90.86 85.3398 90.2935 85.3398C89.8955 85.3398 89.5432 85.2459 89.2369 85.0584C88.9309 84.8709 88.6905 84.6101 88.516 84.2758C88.3443 83.9374 88.2585 83.5725 88.2585 83.1812H89.1084C89.1238 83.5603 89.2369 83.8623 89.4484 84.0863C89.6626 84.3064 89.9446 84.4163 90.2935 84.4163C90.6152 84.4163 90.8723 84.3308 91.0654 84.1596C91.2614 83.9843 91.3594 83.752 91.3594 83.4626ZM96.6695 84.2574H99.8391V85.2174H95.7829V76.3151H96.6695V84.2574ZM103.78 85.2174C103.731 85.0869 103.692 84.8546 103.661 84.5203C103.266 85.0664 102.794 85.3398 102.246 85.3398C101.756 85.3398 101.354 85.1562 101.038 84.7896C100.726 84.4184 100.57 83.9496 100.57 83.3833C100.57 82.6943 100.766 82.1603 101.158 81.7812C101.552 81.3983 102.107 81.2066 102.82 81.2066H103.647V80.6869C103.647 80.2915 103.558 79.9777 103.381 79.7454C103.203 79.5089 102.941 79.3906 102.595 79.3906C102.292 79.3906 102.038 79.4925 101.833 79.6963C101.628 79.9002 101.525 80.1468 101.525 80.4362H100.67C100.67 80.1061 100.758 79.7882 100.932 79.4824C101.11 79.1725 101.349 78.928 101.649 78.7485C101.952 78.5694 102.284 78.4796 102.646 78.4796C103.218 78.4796 103.667 78.6713 103.992 79.0543C104.316 79.4334 104.485 79.9572 104.497 80.6257V83.6706C104.497 84.2779 104.555 84.761 104.672 85.1196V85.2174H103.78ZM102.37 84.3551C102.637 84.3551 102.889 84.2636 103.128 84.08C103.367 83.8967 103.54 83.6584 103.647 83.3649V82.0073H102.981C101.94 82.0073 101.419 82.4132 101.419 83.2243C101.419 83.5788 101.508 83.856 101.686 84.0556C101.863 84.2553 102.091 84.3551 102.37 84.3551ZM110.037 81.9829C110.037 82.9937 109.862 83.8069 109.513 84.4226C109.164 85.0341 108.695 85.3398 108.107 85.3398C107.48 85.3398 106.994 85.0442 106.651 84.4532L106.61 85.2174H105.829V75.8261H106.679V79.3294C107.022 78.7628 107.495 78.4796 108.098 78.4796C108.702 78.4796 109.175 78.7833 109.518 79.3906C109.864 79.9979 110.037 80.8296 110.037 81.8852V81.9829ZM109.187 81.8546C109.187 81.0842 109.075 80.489 108.852 80.0692C108.628 79.6494 108.307 79.4396 107.887 79.4396C107.327 79.4396 106.924 79.7861 106.679 80.4789V83.3405C106.939 84.0334 107.345 84.3798 107.896 84.3798C108.303 84.3798 108.62 84.1697 108.847 83.7499C109.074 83.3301 109.187 82.6984 109.187 81.8546ZM110.887 81.8483C110.887 81.2003 110.981 80.6174 111.171 80.0998C111.364 79.5823 111.631 79.1826 111.971 78.9016C112.314 78.6202 112.704 78.4796 113.142 78.4796C113.819 78.4796 114.366 78.7913 114.782 79.4149C115.202 80.0386 115.411 80.8682 115.411 81.9036V81.9829C115.411 82.6271 115.318 83.2059 115.131 83.7193C114.947 84.2289 114.683 84.6264 114.336 84.9116C113.993 85.1969 113.598 85.3398 113.151 85.3398C112.478 85.3398 111.931 85.0278 111.511 84.4042C111.095 83.7805 110.887 82.9551 110.887 81.928V81.8483ZM111.741 81.9829C111.741 82.7169 111.868 83.3057 112.122 83.7499C112.38 84.1944 112.723 84.4163 113.151 84.4163C113.583 84.4163 113.926 84.1923 114.18 83.744C114.434 83.2915 114.562 82.6595 114.562 81.8483C114.562 81.1231 114.431 80.536 114.171 80.0876C113.914 79.6351 113.571 79.409 113.142 79.409C112.723 79.409 112.384 79.6309 112.127 80.0755C111.87 80.5196 111.741 81.1555 111.741 81.9829ZM118.879 79.6167C118.751 79.5882 118.612 79.5739 118.461 79.5739C117.904 79.5739 117.526 79.8901 117.327 80.5217V85.2174H116.477V78.6017H117.304L117.318 79.3663C117.596 78.7753 117.991 78.4796 118.503 78.4796C118.668 78.4796 118.794 78.5082 118.879 78.5652V79.6167ZM122.55 85.2174C122.501 85.0869 122.461 84.8546 122.43 84.5203C122.035 85.0664 121.564 85.3398 121.016 85.3398C120.526 85.3398 120.123 85.1562 119.807 84.7896C119.495 84.4184 119.339 83.9496 119.339 83.3833C119.339 82.6943 119.535 82.1603 119.927 81.7812C120.322 81.3983 120.876 81.2066 121.59 81.2066H122.416V80.6869C122.416 80.2915 122.328 79.9777 122.15 79.7454C121.972 79.5089 121.711 79.3906 121.365 79.3906C121.062 79.3906 120.807 79.4925 120.602 79.6963C120.397 79.9002 120.294 80.1468 120.294 80.4362H119.44C119.44 80.1061 119.527 79.7882 119.702 79.4824C119.879 79.1725 120.118 78.928 120.418 78.7485C120.722 78.5694 121.054 78.4796 121.415 78.4796C121.988 78.4796 122.436 78.6713 122.761 79.0543C123.086 79.4334 123.254 79.9572 123.266 80.6257V83.6706C123.266 84.2779 123.325 84.761 123.441 85.1196V85.2174H122.55ZM121.14 84.3551C121.406 84.3551 121.659 84.2636 121.897 84.08C122.136 83.8967 122.309 83.6584 122.416 83.3649V82.0073H121.75C120.709 82.0073 120.189 82.4132 120.189 83.2243C120.189 83.5788 120.278 83.856 120.455 84.0556C120.633 84.2553 120.861 84.3551 121.14 84.3551ZM125.751 77V78.6017H126.679V79.4762H125.751V83.5788C125.751 83.8438 125.793 84.0435 125.876 84.1781C125.958 84.3085 126.099 84.3736 126.298 84.3736C126.396 84.3736 126.531 84.3492 126.702 84.3002V85.2174C126.479 85.2988 126.261 85.3398 126.05 85.3398C125.67 85.3398 125.384 85.1868 125.191 84.881C124.998 84.5753 124.902 84.1412 124.902 83.5788V79.4762H123.997V78.6017H124.902V77H125.751ZM127.359 81.8483C127.359 81.2003 127.454 80.6174 127.644 80.0998C127.837 79.5823 128.103 79.1826 128.443 78.9016C128.786 78.6202 129.177 78.4796 129.615 78.4796C130.291 78.4796 130.838 78.7913 131.255 79.4149C131.674 80.0386 131.884 80.8682 131.884 81.9036V81.9829C131.884 82.6271 131.79 83.2059 131.604 83.7193C131.42 84.2289 131.155 84.6264 130.809 84.9116C130.466 85.1969 130.071 85.3398 129.624 85.3398C128.95 85.3398 128.403 85.0278 127.984 84.4042C127.567 83.7805 127.359 82.9551 127.359 81.928V81.8483ZM128.214 81.9829C128.214 82.7169 128.341 83.3057 128.595 83.7499C128.852 84.1944 129.195 84.4163 129.624 84.4163C130.056 84.4163 130.399 84.1923 130.653 83.744C130.907 83.2915 131.034 82.6595 131.034 81.8483C131.034 81.1231 130.904 80.536 130.644 80.0876C130.386 79.6351 130.043 79.409 129.615 79.409C129.195 79.409 128.857 79.6309 128.599 80.0755C128.342 80.5196 128.214 81.1555 128.214 81.9829ZM135.352 79.6167C135.223 79.5882 135.084 79.5739 134.934 79.5739C134.377 79.5739 133.999 79.8901 133.799 80.5217V85.2174H132.95V78.6017H133.776L133.79 79.3663C134.069 78.7753 134.464 78.4796 134.975 78.4796C135.141 78.4796 135.266 78.5082 135.352 78.5652V79.6167ZM137.846 83.5603L139.004 78.6017H139.913L137.915 86.2386C137.606 87.3391 137.114 87.8894 136.441 87.8894L136.28 87.8709L135.963 87.7913V86.8744L136.193 86.8988C136.481 86.8988 136.704 86.8212 136.863 86.6664C137.026 86.5116 137.159 86.2282 137.263 85.8167L137.451 85.144L135.678 78.6017H136.606L137.846 83.5603Z" fill="#C8AA3E"/>
<mask id="mask0" mask-type="alpha" maskUnits="userSpaceOnUse" x="-30" y="-21" width="49" height="100">
<path d="M18.8153 -20.1739H-29.007V78.2609H18.8153V-20.1739Z" fill="#C4C4C4"/>
</mask>
<g mask="url(#mask0)">
<path d="M34.2334 59.3044C34.2334 60.8344 33.7908 62.3496 32.9305 63.7635C32.0702 65.1771 30.8096 66.4616 29.2199 67.5437C27.6306 68.6258 25.7437 69.4838 23.667 70.0696C21.5903 70.655 19.3645 70.9565 17.1167 70.9565C14.8689 70.9565 12.6431 70.655 10.5664 70.0696C8.48974 69.4838 6.6028 68.6258 5.01337 67.5437C3.42395 66.4616 2.16313 65.1771 1.30293 63.7635C0.442738 62.3496 -1.96509e-07 60.8344 0 59.3044H17.1167H34.2334Z" fill="#C8AA3E"/>
<path d="M34.2334 59.4783C34.2334 52.5597 32.43 45.9242 29.2199 41.032C26.0101 36.1398 21.6564 33.3913 17.1167 33.3913C12.5771 33.3913 8.22337 36.1398 5.01337 41.032C1.80337 45.9242 6.85466e-07 52.5597 0 59.4783H17.1167H34.2334Z" fill="#C8AA3E"/>
<path d="M21.1673 6.95651H12.8049V40H21.1673V6.95651Z" fill="#C8AA3E"/>
<path d="M22.7352 0.347839H11.2369V10.4348H22.7352V0.347839Z" fill="#C8AA3E"/>
</g>
</g>
<defs>
<clipPath id="clip0">
<rect width="150" height="88" fill="white"/>
</clipPath>
</defs>
</svg>
