<svg width="60" height="60" viewBox="0 0 60 60" fill="none" xmlns="http://www.w3.org/2000/svg">
<path d="M48.087 2.14954L45.5491 4.6875H42.1875C41.9389 4.68751 41.7004 4.78629 41.5246 4.9621C41.3488 5.13791 41.25 5.37636 41.25 5.625V8.98659L38.0491 12.1875H34.6875C34.4389 12.1875 34.2004 12.2863 34.0246 12.4621C33.8488 12.6379 33.75 12.8764 33.75 13.125V16.4866L30.5491 19.6875H27.1875C26.9389 19.6875 26.7004 19.7863 26.5246 19.9621C26.3488 20.1379 26.25 20.3764 26.25 20.625V23.9866L22.1117 28.125H18.9064C19.1656 26.5748 19.748 25.0964 20.6157 23.7859C21.4834 22.4753 22.617 21.3619 23.943 20.518L22.932 18.9389C20.5401 20.4677 18.7083 22.7308 17.7113 25.3887C16.7142 28.0465 16.6057 30.956 17.402 33.6808C18.1982 36.4056 19.8564 38.7988 22.1277 40.5015C24.3991 42.2043 27.1613 43.1248 30 43.125H42.0414C38.755 46.1384 34.4588 47.8109 30 47.8125C20.1781 47.8125 12.1875 39.8219 12.1875 30H10.3125C10.312 31.5795 10.5018 33.1534 10.8779 34.6875H3.75V25.3125H11.25C11.4354 25.3125 11.6167 25.2575 11.7708 25.1545C11.925 25.0515 12.0451 24.9051 12.1161 24.7338L13.6304 21.078C13.7013 20.9067 13.7199 20.7181 13.6838 20.5363C13.6476 20.3544 13.5583 20.1874 13.4272 20.0562L8.12382 14.753L14.753 8.12382L20.0562 13.4272C20.1873 13.5584 20.3544 13.6477 20.5363 13.6838C20.7181 13.72 20.9067 13.7014 21.078 13.6304L24.7338 12.1161C24.9051 12.0451 25.0515 11.925 25.1545 11.7708C25.2575 11.6167 25.3125 11.4354 25.3125 11.25V3.75H34.6875V9.375H36.5625V2.8125C36.5625 2.56386 36.4637 2.32541 36.2879 2.1496C36.1121 1.97379 35.8736 1.87501 35.625 1.875H24.375C24.1264 1.87501 23.8879 1.97379 23.7121 2.1496C23.5363 2.32541 23.4375 2.56386 23.4375 2.8125V10.6236L20.9391 11.6584L15.416 6.13506C15.2401 5.95927 15.0017 5.86052 14.753 5.86052C14.5044 5.86052 14.2659 5.95927 14.0901 6.13506L6.13506 14.0901C5.95927 14.2659 5.86052 14.5044 5.86052 14.753C5.86052 15.0017 5.95927 15.2401 6.13506 15.416L11.6584 20.9391L10.6236 23.4375H2.8125C2.56386 23.4375 2.32541 23.5363 2.1496 23.7121C1.97379 23.8879 1.87501 24.1264 1.875 24.375V35.625C1.87501 35.8736 1.97379 36.1121 2.1496 36.2879C2.32541 36.4637 2.56386 36.5625 2.8125 36.5625H10.6236L11.6584 39.0609L6.13506 44.584C5.95927 44.7599 5.86052 44.9983 5.86052 45.247C5.86052 45.4956 5.95927 45.7341 6.13506 45.9099L14.0901 53.8649C14.2659 54.0407 14.5044 54.1395 14.753 54.1395C15.0017 54.1395 15.2401 54.0407 15.416 53.8649L20.9391 48.3416L23.4375 49.3764V57.1875C23.4375 57.4361 23.5363 57.6746 23.7121 57.8504C23.8879 58.0262 24.1264 58.125 24.375 58.125H35.625C35.8736 58.125 36.1121 58.0262 36.2879 57.8504C36.4637 57.6746 36.5625 57.4361 36.5625 57.1875V49.3764L39.0609 48.3416L44.584 53.8649C44.7599 54.0407 44.9983 54.1395 45.247 54.1395C45.4956 54.1395 45.7341 54.0407 45.9099 53.8649L53.8649 45.9099C54.0407 45.7341 54.1395 45.4956 54.1395 45.2469C54.1395 44.9983 54.0407 44.7598 53.8648 44.584L52.4058 43.125H57.1875C57.4361 43.125 57.6746 43.0262 57.8504 42.8504C58.0262 42.6746 58.125 42.4361 58.125 42.1875V10.3125C58.125 10.0639 58.0262 9.82541 57.8504 9.6496C57.6746 9.47379 57.4361 9.37501 57.1875 9.375H49.6875C49.4389 9.37501 49.2004 9.47379 49.0246 9.6496C48.8488 9.82541 48.75 10.0639 48.75 10.3125V16.875H42.1875C41.9389 16.875 41.7004 16.9738 41.5246 17.1496C41.3488 17.3254 41.25 17.5639 41.25 17.8125V22.5H34.6875C34.4389 22.5 34.2004 22.5988 34.0246 22.7746C33.8488 22.9504 33.75 23.1889 33.75 23.4375V29.0625H27.1875C26.9389 29.0625 26.7004 29.1613 26.5246 29.3371C26.3488 29.5129 26.25 29.7514 26.25 30V33.75H19.3935C18.9667 32.5459 18.749 31.2776 18.75 30H22.5C22.7486 30 22.9871 29.9012 23.163 29.7255L27.5759 25.3125H30.9375C31.1861 25.3125 31.4246 25.2137 31.6004 25.0379C31.7762 24.8621 31.875 24.6236 31.875 24.375V21.0134L35.0759 17.8125H38.4375C38.6861 17.8125 38.9246 17.7137 39.1004 17.5379C39.2762 17.3621 39.375 17.1236 39.375 16.875V13.5134L42.5759 10.3125H45.9375C46.1861 10.3125 46.4246 10.2137 46.6004 10.0379C46.7762 9.86209 46.875 9.62364 46.875 9.375V6.01341L49.1383 3.75H58.125V1.875H48.75C48.5014 1.87501 48.2629 1.97376 48.087 2.14954ZM14.753 51.8762L8.12382 45.247L13.168 40.203C14.8164 42.9105 17.0895 45.1836 19.797 46.832L14.753 51.8762ZM25.3125 56.25V49.1221C28.392 49.8766 31.6082 49.8759 34.6875 49.1204V56.25H25.3125ZM51.8762 45.247L45.247 51.8762L40.2042 46.8332C41.8687 45.8247 43.3745 44.5751 44.6726 43.125H49.7541L51.8762 45.247ZM50.625 11.25H56.25V41.25H50.625V11.25ZM43.125 18.75H48.75V41.25H43.125V18.75ZM35.625 24.375H41.25V41.25H35.625V24.375ZM28.125 30.9375H33.75V41.25H30C29.3717 41.25 28.7445 41.1974 28.125 41.0929V30.9375ZM26.25 35.625V40.6065C23.7265 39.7077 21.6039 37.9424 20.2602 35.625H26.25ZM30 23.4375H28.125V21.5625H30V23.4375ZM37.5 15.9375H35.625V14.0625H37.5V15.9375ZM45 8.4375H43.125V6.5625H45V8.4375Z" fill="#A13DF0"/>
</svg>
