<svg width="60" height="60" viewBox="0 0 60 60" fill="none" xmlns="http://www.w3.org/2000/svg">
<path d="M35 3H25.0001C24.4481 3 24.0001 3.44801 24.0001 3.99996C24.0001 4.55191 24.4481 4.99992 25.0001 4.99992H35C35.552 4.99992 36 4.55191 36 3.99996C36 3.44801 35.552 3 35 3Z" fill="#A13DF0"/>
<path d="M42 3H41C40.4481 3 40.0001 3.44801 40.0001 3.99996C40.0001 4.55191 40.4481 4.99992 41 4.99992H42C42.552 4.99992 43 4.55191 43 3.99996C43 3.44801 42.552 3 42 3Z" fill="#A13DF0"/>
<path d="M31.242 51H28.759C27.238 51 26 52.238 26 53.7589V54.242C26 55.763 27.238 57 28.758 57H31.241C32.762 57 34 55.763 34 54.242V53.7589C34 52.238 32.762 51 31.242 51ZM32 54.242C32 54.66 31.6601 55 31.2421 55H28.759C28.34 55 28 54.66 28 54.242V53.7589C28 53.34 28.3399 52.9999 28.759 52.9999H31.241C31.6601 52.9999 32 53.3399 32 53.7589V54.242Z" fill="#A13DF0"/>
<path d="M43.386 0H16.615C14.622 0 13 1.62199 13 3.615V56.385C13 58.378 14.622 60 16.615 60H43.3849C45.3779 60 46.9999 58.378 46.9999 56.3861V3.615C47 1.62199 45.378 0 43.386 0ZM45 56.385C45 57.275 44.276 58 43.386 58H16.615C15.724 58 15 57.2749 15 56.3859V3.615C15 2.72496 15.724 2.00004 16.615 2.00004H43.3849C44.2759 2.00004 44.9999 2.72508 44.9999 3.615V56.385H45Z" fill="#A13DF0"/>
<path d="M46 6H14C13.4481 6 13.0001 6.44801 13.0001 6.99996V49C13.0001 49.5519 13.4481 49.9999 14 49.9999H46.0001C46.552 49.9999 47 49.5519 47 49V6.99996C47 6.44801 46.552 6 46 6ZM45 48H15V8.00004H45V48Z" fill="#A13DF0"/>
</svg>
