<svg width="40" height="40" viewBox="0 0 40 40" fill="none" xmlns="http://www.w3.org/2000/svg">
<path d="M0 1.23779V34.0705H12.8384V36.4181H10.4919V38.7619H29.508V36.4181H27.1615V34.0705H40V1.23779H0ZM24.8176 36.4181H15.1823V34.0705H24.8177V36.4181H24.8176ZM37.6562 31.7267H2.34383V27.0333H37.6561V31.7267H37.6562ZM37.6562 24.6895H2.34383V3.5817H37.6561V24.6895H37.6562Z" fill="#A13DF0"/>
<path d="M15.9331 9.89929L14.2757 8.24194L8.38205 14.1356L14.2757 20.0292L15.9331 18.3719L11.6967 14.1356L15.9331 9.89929Z" fill="#A13DF0"/>
<path d="M25.7243 8.24194L24.067 9.89929L28.3033 14.1356L24.067 18.3719L25.7243 20.0292L31.6179 14.1356L25.7243 8.24194Z" fill="#A13DF0"/>
<path d="M20.211 7.06842L17.4901 20.7468L19.789 21.2041L22.5099 7.52572L20.211 7.06842Z" fill="#A13DF0"/>
</svg>
