<svg width="40" height="40" viewBox="0 0 40 40" fill="none" xmlns="http://www.w3.org/2000/svg">
<g clip-path="url(#clip0)">
<path d="M52.0535 -33H28.0869C24.2561 -33 21.1403 -29.8813 21.1403 -26.0487V-22.8H3.28005C-0.522301 -22.8 -3.61514 -19.7862 -3.61514 -16.0814V51.6489C-3.61514 55.5919 -0.321719 58.8002 3.72672 58.8002H35.641C39.6894 58.8002 42.9828 55.5919 42.9828 51.6489V-2.39993H52.0538C55.8842 -2.39993 59 -5.51859 59 -9.35125V-26.0487C59 -29.8813 55.8842 -33 52.0535 -33ZM3.28005 -19.8857H21.1403V-9.68566H-0.703227V-16.0814C-0.703227 -18.1786 1.08346 -19.8857 3.28005 -19.8857ZM35.6406 55.8859H3.72635C1.28404 55.8859 -0.703227 53.9854 -0.703227 51.6489V47.143H40.0702V51.6489C40.0702 53.9854 38.0836 55.8859 35.6406 55.8859ZM40.0702 44.2287H-0.703227V-6.77137H21.6485C22.6755 -4.21445 25.1684 -2.39993 28.0869 -2.39993L32.8022 -11.569L31.3333 -5.31422C31.1884 -4.69822 37.1109 -16.4082 37.6541 -16.0814C37.886 -15.9419 57.1251 -30.214 46.5 -11.569C61.5549 -33.2954 49.7353 -26.5383 40.0702 -9.68566L39.1615 -2.39993H40.0702V44.2287ZM56.0877 -9.35125C56.0877 -7.12509 54.2774 -5.31422 52.0535 -5.31422H38.614C38.2613 -5.31422 37.9202 -5.18527 37.6541 -4.95285L31.9019 0.0943375L32.7509 -3.52448C32.8517 -3.95762 32.7509 -4.41371 32.4749 -4.76233C32.1979 -5.11059 31.7785 -5.31422 31.3333 -5.31422H28.0869C25.863 -5.31422 24.0526 -7.12509 24.0526 -9.35125V-26.0487C24.0526 -28.2748 25.863 -30.0857 28.0869 -30.0857H52.0535C54.2774 -30.0857 56.0877 -28.2748 56.0877 -26.0487V-9.35125Z" fill="#A950EF"/>
<path d="M19.6842 6.11816C10.0493 6.11816 4.00113 12.6625 4.00113 22.304C4.00113 31.9456 10.0493 38.3477 19.6842 38.3477C29.3199 38.3477 35.5269 31.9414 35.5269 22.2999C35.5269 12.6583 29.3199 6.11816 19.6842 6.11816ZM19.6842 36.9424C11.6554 36.9424 5.12281 30.406 5.12281 22.371C5.12281 14.3359 11.6554 7.79952 19.6842 7.79952C27.713 7.79952 34.2457 14.3359 34.2457 22.371C34.2457 30.406 27.713 36.9424 19.6842 36.9424Z" fill="#A950EF"/>
<path d="M19.6842 14.1598C17.7916 14.1598 15.9885 14.7109 14.453 15.7138L14.6532 14.4366C14.777 13.641 14.2339 12.8961 13.4388 12.7718C12.6423 12.6465 11.9 13.1915 11.7752 13.9856L10.9645 19.164C10.8422 19.9479 11.3696 20.6867 12.1505 20.8247L17.6522 21.7981C17.7374 21.8131 17.8229 21.8203 17.9066 21.8203C18.6005 21.8203 19.215 21.3238 19.3387 20.6171C19.4796 19.8244 18.9507 19.0682 18.1585 18.9279L15.5979 18.4751C16.7552 17.5757 18.1789 17.0744 19.6846 17.0744C23.369 17.0744 26.3665 20.074 26.3665 23.7609C26.3665 27.4478 23.369 30.4474 19.6846 30.4474C16.0002 30.4474 13.0027 27.4478 13.0027 23.7609C13.0027 22.9562 12.3514 22.3038 11.5466 22.3038C10.7424 22.3038 10.0904 22.9562 10.0904 23.7609C10.0904 29.0551 14.3948 31.8882 19.6846 31.8882C24.9744 31.8882 28.5 29.0551 28.5 23.7609C28.5 18.4667 24.974 14.1598 19.6842 14.1598Z" fill="#A950EF"/>
</g>
<defs>
<clipPath id="clip0">
<rect width="40" height="40" fill="white"/>
</clipPath>
</defs>
</svg>
