<svg width="40" height="40" viewBox="0 0 40 40" fill="none" xmlns="http://www.w3.org/2000/svg">
<path d="M20.8753 34.168C21.5825 34.168 22.1557 33.5944 22.1557 32.8868C22.1557 32.1791 21.5825 31.6055 20.8753 31.6055C20.1682 31.6055 19.5949 32.1791 19.5949 32.8868C19.5949 33.5944 20.1682 34.168 20.8753 34.168Z" fill="#A950EF"/>
<path d="M33.8248 0H24.4262C22.9239 0 21.7021 1.223 21.7021 2.726V4H14.698C13.2069 4 11.994 5.18186 11.994 6.63471V33.1956C11.994 34.7419 13.2856 36 14.8732 36H27.3886C28.9762 36 30.2677 34.7419 30.2677 33.1956V12H33.825C35.3271 12 36.549 10.777 36.549 9.274V2.726C36.549 1.223 35.3271 0 33.8248 0ZM14.698 5.14286H21.7021V9.14286H13.136V6.63471C13.136 5.81229 13.8366 5.14286 14.698 5.14286ZM27.3884 34.8571H14.8731C13.9153 34.8571 13.136 34.1119 13.136 33.1956V31.4286H29.1255V33.1956C29.1255 34.1119 28.3465 34.8571 27.3884 34.8571ZM29.1255 30.2857H13.136V10.2857H21.9014C22.3041 11.2884 23.2817 12 24.4262 12H24.9788L24.4028 14.4529C24.3459 14.6944 24.4519 14.9453 24.6649 15.0734C24.7558 15.1281 24.8573 15.1549 24.9588 15.1549C25.0937 15.1549 25.2288 15.1069 25.3353 15.0131L28.7692 12H29.1255V30.2857ZM35.4069 9.274C35.4069 10.147 34.6969 10.8571 33.8248 10.8571H28.5545C28.4161 10.8571 28.2824 10.9077 28.178 10.9989L25.9223 12.9781L26.2552 11.559C26.2947 11.3891 26.2552 11.2103 26.147 11.0736C26.0384 10.937 25.8739 10.8571 25.6993 10.8571H24.4262C23.5541 10.8571 22.8441 10.147 22.8441 9.274V2.726C22.8441 1.853 23.5541 1.14286 24.4262 1.14286H33.8248C34.6969 1.14286 35.4069 1.853 35.4069 2.726V9.274Z" fill="#A950EF"/>
<path d="M25.1283 5.46852C25.6233 5.46852 26.0245 5.06698 26.0245 4.57166C26.0245 4.07634 25.6233 3.6748 25.1283 3.6748C24.6333 3.6748 24.232 4.07634 24.232 4.57166C24.232 5.06698 24.6333 5.46852 25.1283 5.46852Z" fill="#A950EF"/>
<path d="M33.6938 4H27.4124C27.0968 4 26.8414 4.25586 26.8414 4.57143C26.8414 4.887 27.0968 5.14286 27.4124 5.14286H33.6938C34.0094 5.14286 34.2648 4.887 34.2648 4.57143C34.2648 4.25586 34.0094 4 33.6938 4Z" fill="#A950EF"/>
<path d="M25.1283 8.89625C25.6233 8.89625 26.0245 8.49472 26.0245 7.9994C26.0245 7.50408 25.6233 7.10254 25.1283 7.10254C24.6333 7.10254 24.232 7.50408 24.232 7.9994C24.232 8.49472 24.6333 8.89625 25.1283 8.89625Z" fill="#A950EF"/>
<path d="M33.6938 7.42871H27.4124C27.0968 7.42871 26.8414 7.68457 26.8414 8.00014C26.8414 8.31571 27.0968 8.57157 27.4124 8.57157H33.6938C34.0094 8.57157 34.2648 8.31571 34.2648 8.00014C34.2648 7.68457 34.0094 7.42871 33.6938 7.42871Z" fill="#A950EF"/>
<path d="M21.131 14.8569C17.3526 14.8569 14.2786 17.9331 14.2786 21.7141C14.2786 25.4951 17.3526 28.5712 21.131 28.5712C24.9097 28.5712 27.9835 25.4951 27.9835 21.7141C27.9835 17.9331 24.9097 14.8569 21.131 14.8569ZM21.131 27.4284C17.9825 27.4284 15.4207 24.8651 15.4207 21.7141C15.4207 18.5631 17.9825 15.9998 21.131 15.9998C24.2796 15.9998 26.8414 18.5631 26.8414 21.7141C26.8414 24.8651 24.2796 27.4284 21.131 27.4284Z" fill="#A950EF"/>
<path d="M8.33544 19.9611C8.11288 19.7371 7.75099 19.7371 7.528 19.9594L6.88144 20.604L6.2376 19.9573C6.01504 19.7333 5.65315 19.7333 5.43016 19.9556C5.2066 20.1783 5.20603 20.5401 5.42845 20.7636L6.07258 21.4106L5.42631 22.0548C5.20275 22.2776 5.20218 22.6394 5.4246 22.8628C5.53609 22.975 5.68285 23.0311 5.82917 23.0311C5.97493 23.0311 6.12083 22.9756 6.23204 22.8646L6.87859 22.22L7.52243 22.8667C7.63392 22.9788 7.78068 23.035 7.92701 23.035C8.07276 23.035 8.21866 22.9794 8.32987 22.8684C8.55343 22.6457 8.554 22.2838 8.33159 22.0604L7.68746 21.4134L8.33373 20.7691C8.55743 20.5464 8.558 20.1846 8.33544 19.9611Z" fill="#A950EF"/>
<path d="M7.42621 6.28558C7.42621 5.34029 6.65774 4.57129 5.7131 4.57129C4.76847 4.57129 4 5.34029 4 6.28558C4 7.23087 4.76847 7.99987 5.7131 7.99987C6.65774 7.99987 7.42621 7.23087 7.42621 6.28558ZM5.14207 6.28558C5.14207 5.97058 5.39832 5.71415 5.7131 5.71415C6.02789 5.71415 6.28414 5.97058 6.28414 6.28558C6.28414 6.60058 6.02789 6.85701 5.7131 6.85701C5.39832 6.85701 5.14207 6.60058 5.14207 6.28558Z" fill="#A950EF"/>
<path d="M5.71312 13.1429C6.0285 13.1429 6.28416 12.887 6.28416 12.5714C6.28416 12.2558 6.0285 12 5.71312 12C5.39775 12 5.14209 12.2558 5.14209 12.5714C5.14209 12.887 5.39775 13.1429 5.71312 13.1429Z" fill="#A950EF"/>
<path d="M33.1227 22.2854C33.4381 22.2854 33.6938 22.0296 33.6938 21.714C33.6938 21.3984 33.4381 21.1426 33.1227 21.1426C32.8074 21.1426 32.5517 21.3984 32.5517 21.714C32.5517 22.0296 32.8074 22.2854 33.1227 22.2854Z" fill="#A950EF"/>
</svg>

