<svg width="40" height="40" viewBox="0 0 40 40" fill="none" xmlns="http://www.w3.org/2000/svg">
<path d="M23.3334 2H16.6667C16.2987 2 16.0001 2.29867 16.0001 2.66664C16.0001 3.03461 16.2987 3.33328 16.6667 3.33328H23.3334C23.7013 3.33328 24 3.03461 24 2.66664C24 2.29867 23.7013 2 23.3334 2Z" fill="#A13DF0"/>
<path d="M28 2H27.3334C26.9654 2 26.6667 2.29867 26.6667 2.66664C26.6667 3.03461 26.9654 3.33328 27.3334 3.33328H28C28.368 3.33328 28.6666 3.03461 28.6666 2.66664C28.6666 2.29867 28.368 2 28 2Z" fill="#A13DF0"/>
<path d="M20.828 34H19.1727C18.1587 34 17.3334 34.8253 17.3334 35.8393V36.1613C17.3334 37.1753 18.1587 38 19.172 38H20.8273C21.8413 38 22.6666 37.1753 22.6666 36.1613V35.8393C22.6666 34.8253 21.8413 34 20.828 34ZM21.3334 36.1613C21.3334 36.44 21.1067 36.6666 20.828 36.6666H19.1727C18.8934 36.6666 18.6666 36.44 18.6666 36.1613V35.8393C18.6666 35.56 18.8933 35.3333 19.1727 35.3333H20.8273C21.1067 35.3333 21.3334 35.5599 21.3334 35.8393V36.1613Z" fill="#A13DF0"/>
<path d="M28.924 0H11.0767C9.74799 0 8.66666 1.08133 8.66666 2.41V37.59C8.66666 38.9187 9.74799 40 11.0767 40H28.9233C30.252 40 31.3333 38.9187 31.3333 37.5907V2.41C31.3334 1.08133 30.252 0 28.924 0ZM30 37.59C30 38.1834 29.5174 38.6666 28.924 38.6666H11.0767C10.4827 38.6666 10 38.1833 10 37.5906V2.41C10 1.81664 10.4827 1.33336 11.0767 1.33336H28.9233C29.5173 1.33336 29.9999 1.81672 29.9999 2.41V37.59H30Z" fill="#A13DF0"/>
<path d="M30.6666 4H9.33336C8.96539 4 8.66672 4.29867 8.66672 4.66664V32.6666C8.66672 33.0346 8.96539 33.3333 9.33336 33.3333H30.6667C31.0347 33.3333 31.3334 33.0346 31.3334 32.6666V4.66664C31.3334 4.29867 31.0347 4 30.6666 4ZM30 32H10V5.33336H30V32Z" fill="#A13DF0"/>
</svg>
