<svg width="60" height="60" viewBox="0 0 60 60" fill="none" xmlns="http://www.w3.org/2000/svg">
<g clip-path="url(#clip0)">
<path d="M59.0625 23.4375V20.625C59.0625 19.8791 58.7662 19.1637 58.2387 18.6363C57.7113 18.1088 56.9959 17.8125 56.25 17.8125H15C14.2541 17.8125 13.5387 18.1088 13.0113 18.6363C12.4838 19.1637 12.1875 19.8791 12.1875 20.625V23.4375H59.0625Z" fill="#A13DF0"/>
<path d="M12.1875 25.3125V56.25C12.1875 56.9959 12.4838 57.7113 13.0113 58.2387C13.5387 58.7662 14.2541 59.0625 15 59.0625H56.25C56.9959 59.0625 57.7113 58.7662 58.2387 58.2387C58.7662 57.7113 59.0625 56.9959 59.0625 56.25V25.3125H12.1875ZM34.6875 56.25H17.8125C17.5639 56.25 17.3254 56.1512 17.1496 55.9754C16.9738 55.7996 16.875 55.5611 16.875 55.3125C16.875 55.0639 16.9738 54.8254 17.1496 54.6496C17.3254 54.4738 17.5639 54.375 17.8125 54.375H34.6875C34.9361 54.375 35.1746 54.4738 35.3504 54.6496C35.5262 54.8254 35.625 55.0639 35.625 55.3125C35.625 55.5611 35.5262 55.7996 35.3504 55.9754C35.1746 56.1512 34.9361 56.25 34.6875 56.25ZM34.6875 52.5H17.8125C17.5639 52.5 17.3254 52.4012 17.1496 52.2254C16.9738 52.0496 16.875 51.8111 16.875 51.5625C16.875 51.3139 16.9738 51.0754 17.1496 50.8996C17.3254 50.7238 17.5639 50.625 17.8125 50.625H34.6875C34.9361 50.625 35.1746 50.7238 35.3504 50.8996C35.5262 51.0754 35.625 51.3139 35.625 51.5625C35.625 51.8111 35.5262 52.0496 35.3504 52.2254C35.1746 52.4012 34.9361 52.5 34.6875 52.5ZM54.375 55.3125C54.375 55.5611 54.2762 55.7996 54.1004 55.9754C53.9246 56.1512 53.6861 56.25 53.4375 56.25H39.375C39.1264 56.25 38.8879 56.1512 38.7121 55.9754C38.5363 55.7996 38.4375 55.5611 38.4375 55.3125V49.6875C38.4375 49.4389 38.5363 49.2004 38.7121 49.0246C38.8879 48.8488 39.1264 48.75 39.375 48.75H53.4375C53.6861 48.75 53.9246 48.8488 54.1004 49.0246C54.2762 49.2004 54.375 49.4389 54.375 49.6875V55.3125ZM54.375 45C54.375 45.2486 54.2762 45.4871 54.1004 45.6629C53.9246 45.8387 53.6861 45.9375 53.4375 45.9375H39.375C39.1264 45.9375 38.8879 45.8387 38.7121 45.6629C38.5363 45.4871 38.4375 45.2486 38.4375 45V39.375C38.4375 39.1264 38.5363 38.8879 38.7121 38.7121C38.8879 38.5363 39.1264 38.4375 39.375 38.4375H53.4375C53.6861 38.4375 53.9246 38.5363 54.1004 38.7121C54.2762 38.8879 54.375 39.1264 54.375 39.375V45ZM54.375 34.6875C54.375 34.9361 54.2762 35.1746 54.1004 35.3504C53.9246 35.5262 53.6861 35.625 53.4375 35.625H39.375C39.1264 35.625 38.8879 35.5262 38.7121 35.3504C38.5363 35.1746 38.4375 34.9361 38.4375 34.6875V29.0625C38.4375 28.8139 38.5363 28.5754 38.7121 28.3996C38.8879 28.2238 39.1264 28.125 39.375 28.125H53.4375C53.6861 28.125 53.9246 28.2238 54.1004 28.3996C54.2762 28.5754 54.375 28.8139 54.375 29.0625V34.6875Z" fill="#A13DF0"/>
<path d="M26.2499 27.1875C24.2103 27.1875 22.2165 27.7923 20.5206 28.9255C18.8247 30.0586 17.503 31.6692 16.7224 33.5536C15.9419 35.4379 15.7377 37.5114 16.1356 39.5119C16.5335 41.5123 17.5157 43.3498 18.9579 44.792C20.4001 46.2343 22.2376 47.2164 24.2381 47.6144C26.2385 48.0123 28.312 47.808 30.1964 47.0275C32.0807 46.247 33.6913 44.9252 34.8245 43.2293C35.9576 41.5334 36.5624 39.5396 36.5624 37.5C36.5624 34.765 35.476 32.1419 33.542 30.208C31.608 28.274 28.985 27.1875 26.2499 27.1875ZM26.2499 45.9375C24.5812 45.9375 22.9499 45.4427 21.5623 44.5155C20.1748 43.5884 19.0933 42.2706 18.4547 40.7289C17.8161 39.1871 17.649 37.4906 17.9746 35.8539C18.3001 34.2172 19.1037 32.7138 20.2837 31.5338C21.4637 30.3538 22.9672 29.5502 24.6039 29.2246C26.2406 28.8991 27.9371 29.0662 29.4788 29.7048C31.0206 30.3434 32.3383 31.4248 33.2655 32.8124C34.1926 34.1999 34.6874 35.8312 34.6874 37.5C34.6874 39.7378 33.7985 41.8839 32.2162 43.4662C30.6338 45.0486 28.4877 45.9375 26.2499 45.9375Z" fill="white"/>
<path d="M45 0.9375H37.5C36.7541 0.9375 36.0387 1.23382 35.5113 1.76126C34.9838 2.28871 34.6875 3.00408 34.6875 3.75V6.5625H19.6875V3.75C19.6875 3.00408 19.3912 2.28871 18.8637 1.76126C18.3363 1.23382 17.6209 0.9375 16.875 0.9375H3.75C3.00408 0.9375 2.28871 1.23382 1.76126 1.76126C1.23382 2.28871 0.9375 3.00408 0.9375 3.75V16.875C0.9375 17.6209 1.23382 18.3363 1.76126 18.8637C2.28871 19.3912 3.00408 19.6875 3.75 19.6875H6.5625V34.6875H3.75C3.00408 34.6875 2.28871 34.9838 1.76126 35.5113C1.23382 36.0387 0.9375 36.7541 0.9375 37.5V45C0.9375 45.7459 1.23382 46.4613 1.76126 46.9887C2.28871 47.5162 3.00408 47.8125 3.75 47.8125H11.25C11.9959 47.8125 12.7113 47.5162 13.2387 46.9887C13.7662 46.4613 14.0625 45.7459 14.0625 45V37.5C14.0625 36.7541 13.7662 36.0387 13.2387 35.5113C12.7113 34.9838 11.9959 34.6875 11.25 34.6875H8.4375V19.6875H16.875C17.6209 19.6875 18.3363 19.3912 18.8637 18.8637C19.3912 18.3363 19.6875 17.6209 19.6875 16.875V8.4375H34.6875V11.25C34.6875 11.9959 34.9838 12.7113 35.5113 13.2387C36.0387 13.7662 36.7541 14.0625 37.5 14.0625H40.1437C39.9503 14.6096 39.5924 15.0834 39.1191 15.4191C38.6458 15.7548 38.0803 15.9359 37.5 15.9375H30C28.7568 15.9375 27.5645 16.4314 26.6854 17.3104C25.8064 18.1895 25.3125 19.3818 25.3125 20.625V22.1156L24.1031 20.8969C23.9266 20.7203 23.6872 20.6212 23.4375 20.6212C23.1878 20.6212 22.9484 20.7203 22.7719 20.8969C22.5953 21.0734 22.4962 21.3128 22.4962 21.5625C22.4962 21.8122 22.5953 22.0516 22.7719 22.2281L25.5844 25.0406C25.6715 25.1285 25.7752 25.1982 25.8895 25.2458C26.0037 25.2934 26.1262 25.3179 26.25 25.3179C26.3738 25.3179 26.4963 25.2934 26.6105 25.2458C26.7248 25.1982 26.8285 25.1285 26.9156 25.0406L29.7281 22.2281C29.9047 22.0516 30.0038 21.8122 30.0038 21.5625C30.0038 21.3128 29.9047 21.0734 29.7281 20.8969C29.5516 20.7203 29.3122 20.6212 29.0625 20.6212C28.8128 20.6212 28.5734 20.7203 28.3969 20.8969L27.1875 22.1156V20.625C27.1875 19.8791 27.4838 19.1637 28.0113 18.6363C28.5387 18.1088 29.2541 17.8125 30 17.8125H37.5C38.5806 17.8127 39.6281 17.4396 40.4652 16.7562C41.3023 16.0729 41.8776 15.1213 42.0938 14.0625H45C45.7459 14.0625 46.4613 13.7662 46.9887 13.2387C47.5162 12.7113 47.8125 11.9959 47.8125 11.25V3.75C47.8125 3.00408 47.5162 2.28871 46.9887 1.76126C46.4613 1.23382 45.7459 0.9375 45 0.9375ZM11.25 36.5625C11.4986 36.5625 11.7371 36.6613 11.9129 36.8371C12.0887 37.0129 12.1875 37.2514 12.1875 37.5V45C12.1875 45.2486 12.0887 45.4871 11.9129 45.6629C11.7371 45.8387 11.4986 45.9375 11.25 45.9375H3.75C3.50136 45.9375 3.2629 45.8387 3.08709 45.6629C2.91127 45.4871 2.8125 45.2486 2.8125 45V37.5C2.8125 37.2514 2.91127 37.0129 3.08709 36.8371C3.2629 36.6613 3.50136 36.5625 3.75 36.5625H11.25ZM17.8125 16.875C17.8125 17.1236 17.7137 17.3621 17.5379 17.5379C17.3621 17.7137 17.1236 17.8125 16.875 17.8125H3.75C3.50136 17.8125 3.2629 17.7137 3.08709 17.5379C2.91127 17.3621 2.8125 17.1236 2.8125 16.875V3.75C2.8125 3.50136 2.91127 3.2629 3.08709 3.08709C3.2629 2.91127 3.50136 2.8125 3.75 2.8125H16.875C17.1236 2.8125 17.3621 2.91127 17.5379 3.08709C17.7137 3.2629 17.8125 3.50136 17.8125 3.75V16.875ZM45.9375 11.25C45.9375 11.4986 45.8387 11.7371 45.6629 11.9129C45.4871 12.0887 45.2486 12.1875 45 12.1875H37.5C37.2514 12.1875 37.0129 12.0887 36.8371 11.9129C36.6613 11.7371 36.5625 11.4986 36.5625 11.25V3.75C36.5625 3.50136 36.6613 3.2629 36.8371 3.08709C37.0129 2.91127 37.2514 2.8125 37.5 2.8125H45C45.2486 2.8125 45.4871 2.91127 45.6629 3.08709C45.8387 3.2629 45.9375 3.50136 45.9375 3.75V11.25Z" fill="white"/>
<path d="M226.741 32.762C230.876 32.511 234.024 28.956 233.773 24.822C229.002 -53.881 163.446 -115.532 84.528 -115.532C2.07598 -115.532 -65.004 -48.452 -65.004 34.001C-65.004 116.453 2.07598 183.533 84.528 183.533C158.397 183.533 221.428 129.411 232.393 56.376C233.008 52.28 230.186 48.461 226.089 47.846C222.003 47.233 218.174 50.052 217.559 54.15C207.709 119.764 151.053 168.534 84.528 168.534C10.347 168.534 -50.004 108.183 -50.004 34.002C-50.004 -40.179 10.347 -100.531 84.528 -100.531C155.529 -100.531 214.508 -45.07 218.8 25.732C219.05 29.864 222.602 33.002 226.741 32.762Z" fill="black"/>
<path d="M84.528 -158.471C58.147 -158.471 32.3 -152.998 8.51003 -142.763H-123.819C-127.961 -142.763 -131.319 -139.406 -131.319 -135.263C-131.319 -131.12 -127.961 -127.763 -123.819 -127.763H-19.706C-33.783 -118.703 -46.742 -107.775 -58.168 -95.159C-60.948 -92.09 -60.714 -87.347 -57.644 -84.566C-54.573 -81.785 -49.832 -82.02 -47.05 -85.09C-13.448 -122.192 34.511 -143.471 84.528 -143.471C182.386 -143.471 262 -63.858 262 34C262 131.857 182.387 211.471 84.528 211.471C-13.33 211.471 -92.943 131.858 -92.943 34C-92.943 -0.268005 -83.154 -33.528 -64.636 -62.186C-62.388 -65.665 -63.386 -70.307 -66.865 -72.555C-70.344 -74.802 -74.986 -73.806 -77.235 -70.326C-97.325 -39.238 -107.943 -3.16299 -107.943 34C-107.943 101.766 -72.737 161.458 -19.658 195.763H-123.818C-127.96 195.763 -131.318 199.12 -131.318 203.263C-131.318 207.406 -127.96 210.763 -123.818 210.763H8.40703C31.767 220.862 57.504 226.471 84.529 226.471C190.657 226.471 277 140.129 277 34C277 -72.129 190.657 -158.471 84.528 -158.471Z" fill="black"/>
</g>
<defs>
<clipPath id="clip0">
<rect width="60" height="60" fill="white"/>
</clipPath>
</defs>
</svg>
